<?xml version="1.0" encoding="UTF-8" standalone="no"?>
<!-- Created with Inkscape (http://www.inkscape.org/) -->

<svg
   version="1.1"
   id="svg1"
   width="1097"
   height="1061"
   viewBox="0 0 1097 1061"
   sodipodi:docname="logo_light_idle.svg"
   xml:space="preserve"
   inkscape:version="1.4.2 (ebf0e940d0, 2025-05-08)"
   inkscape:export-filename="logo_light_idle.png"
   inkscape:export-xdpi="96"
   inkscape:export-ydpi="96"
   xmlns:inkscape="http://www.inkscape.org/namespaces/inkscape"
   xmlns:sodipodi="http://sodipodi.sourceforge.net/DTD/sodipodi-0.dtd"
   xmlns="http://www.w3.org/2000/svg"
   xmlns:svg="http://www.w3.org/2000/svg"><defs
     id="defs1" /><sodipodi:namedview
     id="namedview1"
     pagecolor="#ffffff"
     bordercolor="#000000"
     borderopacity="0.25"
     inkscape:showpageshadow="2"
     inkscape:pageopacity="0.0"
     inkscape:pagecheckerboard="0"
     inkscape:deskcolor="#d1d1d1"
     showgrid="false"
     inkscape:zoom="0.77108628"
     inkscape:cx="551.81892"
     inkscape:cy="511.6159"
     inkscape:window-width="2560"
     inkscape:window-height="1366"
     inkscape:window-x="0"
     inkscape:window-y="0"
     inkscape:window-maximized="1"
     inkscape:current-layer="g1"
     showguides="true" /><g
     inkscape:groupmode="layer"
     inkscape:label="Image"
     id="g1"><path
       style="fill:#000000"
       d="m 323.63519,1011.2542 c -30.48406,-1.2725 -50.03846,-3.6486 -67,-8.1416 -17.03976,-4.51365 -30.09833,-8.8107 -39.2391,-12.91209 -2.33151,-1.04612 -4.54774,-1.90205 -4.92496,-1.90205 -1.28361,0 -17.8344,-8.36731 -18.16928,-9.18554 -0.18333,-0.44795 -0.99245,-0.81446 -1.79803,-0.81446 -0.80559,0 -3.92683,-1.575 -6.93609,-3.5 -3.00926,-1.925 -5.67423,-3.5 -5.92217,-3.5 -0.64867,0 -15.75812,-10.23146 -17.3318,-11.73634 -0.72679,-0.69501 -1.62679,-1.26574 -2,-1.26828 -0.37322,-0.003 -2.02857,-1.26846 -3.67857,-2.81314 -1.65,-1.54468 -3.74996,-3.2301 -4.66656,-3.74537 -6.98843,-3.92857 -35.10262,-32.07928 -41.77548,-41.82974 -0.79312,-1.15892 -1.7483,-2.33213 -2.12262,-2.60713 -0.77179,-0.567 -15.93534,-23.01223 -15.93534,-23.58763 0,-0.20544 -1.48483,-2.74477 -3.299619,-5.64295 -4.51453,-7.2096 -15.70038,-30.58555 -15.70038,-32.81032 0,-0.54243 -0.438375,-1.76763 -0.974167,-2.72266 -1.587254,-2.82925 -6.025833,-16.72256 -6.025833,-18.86162 0,-1.08615 -0.377173,-2.40232 -0.838161,-2.92482 -0.460989,-0.5225 -1.619954,-4.775 -2.575478,-9.45 -0.955524,-4.675 -2.111884,-10.075 -2.569689,-12 -1.645081,-6.91732 -2.954943,-15.75093 -4.522589,-30.5 -1.384818,-13.02893 -1.539435,-28.92882 -1.176652,-121 0.363225,-92.18345 0.63384,-107.43379 2.076151,-117 0.912168,-6.05 1.929926,-13.14688 2.261685,-15.77085 0.331759,-2.62397 0.995044,-5.01303 1.473966,-5.30902 0.478922,-0.29599 0.878479,-1.7491 0.887904,-3.22914 0.01479,-2.32184 1.729056,-9.44813 4.97733,-20.69099 0.476716,-1.65 1.507694,-5.2694 2.291061,-8.04312 0.783367,-2.77373 2.164592,-6.71123 3.069388,-8.75 0.904796,-2.03878 2.320084,-5.23738 3.145084,-7.108 0.825,-1.87063 1.5,-3.85844 1.5,-4.41737 0,-2.03817 13.211439,-26.91835 19.581129,-36.8758 1.88038,-2.9395 3.418868,-5.75319 3.418868,-6.25264 0,-1.56998 6.378642,-5.97975 7.465232,-5.16097 0.56912,0.42885 3.73477,1.60106 7.03477,2.60491 9.88984,3.00844 14.15937,6.17036 15.09964,11.18245 0.3449,1.83845 1.02607,3.58922 1.51372,3.89061 0.48765,0.30138 0.89319,1.53391 0.90119,2.73895 0.0138,2.08549 2.03455,8.89428 3.91479,13.19098 7.20276,16.45964 15.13221,27.93539 25.32066,36.64484 3.4375,2.9385 6.475,5.5718 6.75,5.85178 1.35712,1.3817 12.10008,8.00338 12.98461,8.00338 1.28215,0 1.32428,4.46347 0.0638,6.76357 -0.83621,1.52595 -2.11035,4.47721 -5.06694,11.73643 -0.44801,1.1 -1.04686,2.9 -1.33077,4 -0.28391,1.1 -1.26125,4.475 -2.17188,7.5 -2.28768,7.59942 -3.25549,12.46457 -5.47054,27.5 -1.77388,12.04092 -1.9187,19.67672 -1.96298,103.5 -0.0404,76.56154 0.19338,92.3482 1.51813,102.5 0.86127,6.6 1.95797,13.575 2.43713,15.5 0.47915,1.925 1.59975,6.425 2.49023,10 1.85261,7.43766 2.94082,10.66915 5.72477,17 1.08837,2.475 2.65483,6.075 3.48103,8 3.88948,9.0623 9.46645,18.53641 15.5993,26.5 2.11781,2.75 5.05279,6.575 6.52218,8.5 6.44969,8.44951 22.13,22.42284 34.13747,30.42121 10.58899,7.0535 30.06242,17.57879 32.5235,17.57879 0.39527,0 2.13668,0.61671 3.8698,1.37045 1.73312,0.75375 5.17613,1.93094 7.65113,2.61598 2.475,0.68504 5.625,1.63433 7,2.10953 3.18701,1.10142 11.92044,2.62229 24,4.17943 7.24681,0.93416 62.50923,1.22461 233,1.22461 122.925,0 226.65,-0.35324 230.5,-0.78498 10.74225,-1.20463 28.44836,-4.80824 33,-6.71626 1.1,-0.46112 5.30562,-2.05529 9.34582,-3.54261 12.15536,-4.47476 26.47067,-12.58952 40.15418,-22.76175 9.35902,-6.95743 26.36345,-24.70964 33.71188,-35.1944 6.26159,-8.93403 15.28812,-24.68852 15.28812,-26.68316 0,-0.41666 1.1927,-3.3584 2.65045,-6.5372 2.52335,-5.50246 4.93631,-12.84465 6.00748,-18.27964 0.27099,-1.375 0.87633,-3.4 1.34519,-4.5 0.46886,-1.1 1.67247,-7.175 2.67468,-13.5 1.67085,-10.54483 1.82086,-19.43203 1.80612,-107 -0.0157,-93.21792 -0.0676,-95.7987 -2.17109,-108 -1.18526,-6.875 -2.6093,-14.075 -3.16454,-16 -0.55523,-1.925 -1.65045,-5.7694 -2.43382,-8.54312 -0.78337,-2.77373 -2.16459,-6.71123 -3.06939,-8.75 -0.9048,-2.03878 -2.35052,-5.39438 -3.21271,-7.45688 -2.14688,-5.13563 -3.83155,-8.65267 -4.43078,-9.25 -0.27588,-0.275 -1.36219,-2.075 -2.41403,-4 -1.05184,-1.925 -4.72586,-7.79716 -8.16448,-13.04926 -7.45034,-11.37951 -27.22732,-31.60413 -37.87515,-38.73243 -3.87636,-2.59507 -7.27293,-4.94331 -7.54793,-5.21831 -0.95578,-0.95578 -4.52216,-3.00106 -8.25,-4.73128 -2.0625,-0.95729 -3.75,-2.08436 -3.75,-2.50462 0,-0.42025 -0.41861,-0.7641 -0.93023,-0.7641 -0.51163,0 -3.77413,-1.31523 -7.25,-2.92274 -3.47588,-1.60751 -9.01977,-3.88953 -12.31977,-5.07115 -3.3,-1.18163 -6.9,-2.53186 -8,-3.00051 -2.01159,-0.85704 -11.2901,-2.95352 -21.5,-4.85794 -18.589,-3.46735 -21.27817,-3.51385 -223,-3.85586 -146.33395,-0.2481 -200.29949,-0.64244 -202.5,-1.47972 -6.33161,-2.40911 -8.27649,-5.5003 -9.63387,-15.31208 -0.45653,-3.3 -1.2436,-8.025 -1.74904,-10.5 -0.50544,-2.475 -1.46379,-7.2 -2.12966,-10.5 -0.66588,-3.3 -1.61046,-6.78139 -2.09906,-7.73643 -0.48861,-0.95503 -0.88837,-5.10157 -0.88837,-9.21451 0,-6.21804 0.44639,-8.28444 2.64922,-12.26357 6.15924,-11.12589 12.25881,-18.2105 20.88316,-24.25566 5.9151,-4.14613 13.12648,-8.02983 14.91006,-8.02983 0.85666,0 1.55756,-0.45 1.55756,-1 0,-0.55 0.81,-1 1.8,-1 0.99,0 2.2275,-0.37393 2.75,-0.83095 0.5225,-0.45703 3.875,-1.63269 7.45,-2.61257 3.575,-0.97989 7.625,-2.15078 9,-2.60197 5.45941,-1.79146 22.94554,-2.95451 44.42044,-2.95451 12.41875,0 22.57956,-0.2487 22.57956,-0.55267 0,-0.5293 -11.96078,-18.41417 -13.00569,-19.44733 -1.68725,-1.66827 -5.99431,-8.02717 -5.99431,-8.84994 0,-0.54086 -0.3375,-1.13339 -0.75,-1.31672 -1.84481,-0.81992 -17.47056,-25.41759 -17.92481,-28.2168 -0.62402,-3.84541 2.28869,-6.73613 11.17481,-11.09046 10.58487,-5.18675 19.684,-11.53972 27.39612,-19.12784 9.31788,-9.16806 11.62352,-9.57788 17.71185,-3.14824 2.21342,2.3375 5.79461,6.95 7.95821,10.25 2.1636,3.3 4.27132,6.15 4.68382,6.33334 0.4125,0.18333 0.75,0.97083 0.75,1.75 0,0.77916 0.35297,1.41666 0.78439,1.41666 0.43142,0 1.64641,1.4625 2.69998,3.25 1.05358,1.7875 2.27673,3.7 2.71813,4.25 1.74045,2.16869 18.21408,26.11239 21.50181,31.25194 4.33836,6.78196 7.31325,10.24806 8.79569,10.24806 0.62663,0 2.08098,-1.08299 3.23189,-2.40665 2.59327,-2.98253 42.78288,-59.29216 48.52079,-67.98246 0.68602,-1.03901 2.18328,-3.06401 3.32723,-4.5 1.14395,-1.43599 7.63674,-10.48589 14.42842,-20.11089 6.79169,-9.625 12.63962,-17.725 12.9954,-18 0.35579,-0.275 1.49752,-1.9625 2.53719,-3.75 1.03966,-1.7875 2.24327,-3.25 2.67468,-3.25 0.43142,0 0.7844,-0.6375 0.7844,-1.41666 0,-0.77917 0.36751,-1.56667 0.81668,-1.75 0.44918,-0.18334 2.81168,-3.24628 5.25,-6.80655 2.43833,-3.56026 4.91402,-6.99811 5.50155,-7.63966 0.58753,-0.64155 3.28753,-4.4786 6,-8.52679 2.71247,-4.04818 5.26927,-7.51034 5.68177,-7.69367 0.4125,-0.18333 0.75,-0.86606 0.75,-1.51717 0,-2.061 8.99723,-11.56443 13.33345,-14.08361 2.2916,-1.33134 7.20405,-3.22241 10.91655,-4.20237 6.4744,-1.70902 7.02559,-1.70902 13.5,0 8.50443,2.24486 13.73937,5.27399 19.02563,11.0089 5.18818,5.62851 7.65246,11.14024 8.99899,20.12758 1.65032,11.01493 -1.08774,20.8759 -8.19116,29.5 -2.03858,2.475 -4.28158,5.20827 -4.98444,6.07394 -0.70287,0.86566 -2.12221,3.00316 -3.15409,4.75 -1.03188,1.74683 -2.22912,3.17606 -2.66054,3.17606 -0.43142,0 -0.78439,0.5671 -0.78439,1.26022 0,0.69312 -1.125,2.47348 -2.5,3.95636 -1.375,1.48287 -2.5,3.12828 -2.5,3.65645 0,0.52817 -0.38275,1.11031 -0.85054,1.29364 -0.4678,0.18333 -2.02959,2.13333 -3.47065,4.33333 -3.37079,5.14602 -14.27467,20.63379 -15.63499,22.2078 -0.5741,0.66428 -1.04382,1.62168 -1.04382,2.12755 0,0.50587 -0.7023,1.50262 -1.56067,2.215 -0.85837,0.71239 -7.17404,9.30101 -14.03482,19.08584 -6.86079,9.78483 -13.13349,18.44993 -13.93934,19.25578 -0.80584,0.80585 -1.46517,1.94732 -1.46517,2.53661 0,0.58928 -0.41968,1.07142 -0.93262,1.07142 -0.51293,0 -1.19308,0.82068 -1.51143,1.82372 -0.31836,1.00304 -1.37551,2.69054 -2.34923,3.75 -0.97372,1.05946 -2.74821,3.52145 -3.94331,5.4711 -1.1951,1.94965 -3.09327,4.606 -4.21816,5.90301 -1.12489,1.29701 -2.04525,2.65449 -2.04525,3.01662 0,0.36214 -0.80112,1.53078 -1.78026,2.59699 -0.97915,1.06621 -3.11408,3.73856 -4.74431,5.93856 -1.63023,2.2 -3.20077,4.225 -3.4901,4.5 -0.28932,0.275 -1.06973,1.7375 -1.73425,3.25 l -1.20821,2.75 h 67.7266 c 65.3913,0 105.29168,1.01669 115.73053,2.94888 2.75,0.50902 11.075,1.87996 18.5,3.04654 19.76246,3.10499 19.96964,3.14644 20.56828,4.11507 0.30236,0.48923 1.56803,0.88951 2.81259,0.88951 1.24457,0 4.48051,0.69089 7.19099,1.5353 2.71047,0.84441 6.50314,1.99916 8.42814,2.5661 1.925,0.56694 4.4,1.42649 5.5,1.9101 1.1,0.48362 4.1375,1.80387 6.75,2.9339 2.6125,1.13003 6.8875,2.97909 9.5,4.10902 8.21212,3.5518 19.54909,9.32006 24.95196,12.69558 2.86108,1.7875 5.43167,3.25 5.71242,3.25 0.67445,0 14.97787,10.36716 28.58562,20.71892 1.925,1.4644 10.0642,9.21422 18.08711,17.22181 14.01025,13.98352 33.27834,37.941 38.40332,47.74977 1.0947,2.09523 2.2197,4.0345 2.5,4.3095 1.7187,1.68647 12.08201,22.17557 15.42671,30.5 1.5469,3.85 3.605,8.8 4.5735,11 0.9685,2.2 2.0938,5.575 2.5006,7.5 0.4068,1.925 1.0773,3.95 1.49,4.5 0.4127,0.55 0.9986,2.125 1.3019,3.5 0.3034,1.375 1.2813,4.975 2.1732,8 0.8918,3.025 2.0736,7.75 2.6261,10.5 0.5524,2.75 1.4216,7.025 1.9314,9.5 0.5098,2.475 1.8949,10.8 3.078,18.5 2.0503,13.34475 2.1725,18.18898 2.61,103.5 0.4704,91.74108 -0.2847,125.78991 -3.2268,145.5 -0.821,5.5 -1.7719,12.14689 -2.1131,14.77086 -0.3412,2.62397 -1.0123,5.01302 -1.4912,5.30901 -0.4789,0.29599 -0.8708,1.77994 -0.8708,3.29765 0,1.51772 -0.6833,5.20366 -1.5186,8.19098 -0.8352,2.98733 -2.0115,7.2315 -2.6139,9.4315 -0.6025,2.2 -1.4559,4.9 -1.8965,6 -0.4406,1.1 -1.6051,4.475 -2.5878,7.5 -0.9827,3.025 -2.1459,5.9275 -2.5849,6.45 -0.439,0.5225 -0.7983,1.53721 -0.7983,2.25491 0,0.71769 -1.125,3.63691 -2.5,6.48715 -1.375,2.85024 -2.5,5.77303 -2.5,6.4951 0,0.72206 -0.3509,1.31284 -0.7798,1.31284 -0.4289,0 -1.653,2.25 -2.7202,5 -1.0671,2.75 -2.2912,5 -2.72007,5 -0.4289,0 -0.7799,0.68395 -0.7799,1.51988 0,0.83593 -1.20604,3.42343 -2.68014,5.75 -1.4741,2.32657 -3.1791,5.13012 -3.7889,6.23012 -1.5994,2.88521 -10.78144,16.90803 -11.45881,17.5 -0.31467,0.275 -3.48757,4.325 -7.0509,9 -9.30678,12.21029 -9.52239,12.45666 -20.54586,23.47764 -14.77892,14.77557 -27.967,25.62406 -41.97536,34.52886 -3.85,2.44736 -7.225,4.68459 -7.5,4.97163 -0.44814,0.46774 -3.75427,2.3638 -9.5,5.44823 -1.1,0.59051 -2.225,1.31027 -2.5,1.59948 -0.69594,0.7319 -17.50453,8.97416 -18.30116,8.97416 -0.35682,0 -3.56855,1.33729 -7.13718,2.97176 -3.56862,1.63447 -7.74239,3.27151 -9.27504,3.63789 -1.53264,0.36637 -3.23662,0.97954 -3.78662,1.36254 -1.14298,0.7961 -12.80688,4.41955 -19.5,6.05795 -2.475,0.6058 -6.3,1.5503 -8.5,2.0987 -2.2,0.5485 -10.075,1.8639 -17.5,2.923 -7.425,1.0591 -17.1,2.4687 -21.5,3.1325 -6.03984,0.9112 -61.65939,1.2405 -227,1.3439 -120.45,0.075 -226.65,-0.1822 -236,-0.5725 z m -97,-539.03813 c -6.59118,-0.92114 -13.46873,-2.80337 -14.95,-4.09149 -0.5225,-0.45436 -1.88054,-0.82612 -3.01787,-0.82612 -1.13732,0 -3.72345,-1.125 -5.74694,-2.5 -2.0235,-1.375 -4.15296,-2.5 -4.73214,-2.5 -0.57918,0 -1.05305,-0.45 -1.05305,-1 0,-0.55 -0.60402,-1 -1.34226,-1 -1.90613,0 -15.76594,-13.6312 -19.31864,-19 -3.75429,-5.67344 -7.23988,-13.20292 -8.01954,-17.3236 -0.33054,-1.74702 -0.91719,-3.6264 -1.30366,-4.1764 -0.38647,-0.55 -1.29581,-4.93849 -2.02077,-9.7522 -1.09301,-7.25758 -1.09112,-10.46717 0.0111,-18.79462 0.73104,-5.52332 1.70371,-10.27389 2.16149,-10.55681 0.45777,-0.28292 0.83232,-1.43213 0.83232,-2.55381 0,-1.12167 1.81924,-5.81577 4.04277,-10.43133 7.51229,-15.59394 24.23802,-29.77255 42.45723,-35.99153 7.05842,-2.40933 9.53006,-2.73599 21,-2.77539 13.79382,-0.0474 20.97888,1.26174 30.1772,5.49829 10.5812,4.87349 20.44847,12.72065 26.85548,21.3574 1.63202,2.2 3.46892,4.53376 4.082,5.18612 2.23024,2.37315 7.22735,13.98359 8.95825,20.81388 2.29767,9.06683 2.32536,30.35013 0.0505,38.84892 -2.11969,7.91922 -3.88359,12.65108 -4.71594,12.65108 -0.37989,0 -0.97053,1.11491 -1.31254,2.47757 -0.72288,2.88018 -7.94335,12.10949 -14.375,18.37432 -4.82445,4.69932 -15.09059,11.70673 -18.56975,12.67524 -1.18263,0.32922 -3.05023,0.95794 -4.15023,1.39716 -11.37018,4.54002 -22.92034,5.82123 -36,3.99332 z m -126,-124.56613 c -22.622714,-4.71143 -34.948545,-11.79065 -47.654919,-27.37012 -4.149109,-5.08729 -9.550116,-14.5668 -10.995373,-19.29839 -3.120696,-10.21677 -3.98231,-15.16023 -4.127797,-23.68297 -0.156034,-9.14062 1.724858,-22.47581 3.448603,-24.45 0.456218,-0.5225 0.829487,-1.77496 0.829487,-2.78324 0,-4.28669 8.361109,-17.9846 15.958484,-26.14459 12.114731,-13.01188 34.680115,-22.62474 53.101705,-22.62135 4.14037,7.7e-4 16.38741,2.16129 20.58683,3.63176 10.63212,3.72296 23.48544,11.69518 31.25045,19.38298 4.48282,4.43824 11.10253,13.76201 11.10253,15.63776 0,0.64901 0.3375,1.33002 0.75,1.51335 0.99177,0.44079 5.70276,11.1528 7.40306,16.83333 1.81232,6.0548 1.79122,28.05077 -0.0326,34 -3.87305,12.63364 -6.73909,18.76048 -12.78419,27.32921 -3.15501,4.47213 -14.59316,14.58229 -19.33626,17.09128 -1.375,0.72735 -4.66131,2.50529 -7.30292,3.95098 -2.6416,1.44569 -5.46021,2.62853 -6.26357,2.62853 -0.80336,0 -2.24204,0.41946 -3.19708,0.93212 -5.64593,3.03072 -24.93053,5.04502 -32.73643,3.41936 z m 186,-45.04109 c -8.06735,-0.66667 -19.13152,-4.71727 -24.72864,-9.05317 -13.87228,-10.7464 -20.06795,-23.80509 -20.04886,-42.25722 0.0167,-16.13016 3.33884,-24.12558 14.75211,-35.5038 7.64319,-7.61972 10.09805,-9.24193 19.05944,-12.59482 4.63348,-1.73361 8.11269,-2.22541 15.94625,-2.25409 9.66729,-0.0354 15.09323,1.06827 22.5197,4.58063 3.58039,1.69336 14.99977,9.74154 15.00122,10.57261 6.7e-4,0.38471 1.17794,2.04947 2.61615,3.69947 2.9521,3.38683 7.5818,12.94184 9.26231,19.11602 1.41569,5.20121 1.44597,21.6125 0.0496,26.88398 -3.61015,13.62893 -13.01658,25.08453 -25.41276,30.94886 -10.38989,4.9152 -19.12218,6.67919 -29.01653,5.86153 z m 97.5,-105.9307 c -16.94862,-3.06475 -30.32979,-11.20055 -43.7547,-26.60304 -1.78492,-2.04784 -3.2453,-4.13024 -3.2453,-4.62755 0,-0.49731 -0.63237,-1.42902 -1.40526,-2.07047 -1.7477,-1.45046 -6.9969,-14.7115 -8.73953,-22.07863 -3.05171,-12.90142 -1.18936,-30.72086 4.6508,-44.500001 0.69934,-1.649999 1.57226,-3.997889 1.93984,-5.217533 1.46536,-4.862222 18.94086,-25.282466 21.63655,-25.282466 0.42611,0 1.37762,-0.5625 2.11448,-1.25 1.24382,-1.160502 6.31353,-4.164996 9.80312,-5.809687 7.83157,-3.691128 15.29868,-5.567227 25.80644,-6.483831 8.24345,-0.719086 24.7241,0.9749 25.75786,2.647555 0.30455,0.49278 1.39134,0.895963 2.41508,0.895963 2.07578,0 15.77953,6.686908 17.84205,8.706238 0.72678,0.711569 1.67227,1.293762 2.10107,1.293762 1.22459,0 10.39135,9.076758 13.63386,13.5 1.61274,2.2 3.21954,4.225 3.57066,4.5 0.35112,0.275 2.17274,3.425 4.04804,7 5.63387,10.74018 9.23354,26.06472 8.5737,36.5 -0.73731,11.66048 -2.76583,21.16776 -6.08091,28.5 -1.57244,3.47791 -6.01244,10.43093 -6.91785,10.83334 -0.4125,0.18333 -0.75,0.79961 -0.75,1.36951 0,1.54188 -14.15143,15.79715 -15.68208,15.79715 -0.72486,0 -1.31792,0.43546 -1.31792,0.96769 0,0.53223 -4.1625,2.95981 -9.25,5.39462 -15.11033,7.23162 -29.67079,9.10575 -46.75,6.01738 z M 201.90696,184.24057 c -8.44541,-0.96982 -12.00095,-2.00461 -22.27177,-6.48187 -6.12762,-2.67115 -17.71943,-10.98095 -22.65447,-16.24025 -8.30496,-8.85066 -9.08913,-10.17003 -15.88118,-26.71999 -4.48466,-10.92763 -4.4513,-34.48574 0.0651,-46 0.43147,-1.1 1.52633,-4.025 2.43302,-6.5 6.42759,-17.54546 24.74035,-34.681261 43.03749,-40.271471 20.66473,-6.313568 27.54997,-6.404576 47.50137,-0.627871 6.08531,1.761934 18.39731,8.162027 21.3415,11.093859 0.72105,0.718015 2.93224,2.726461 4.91376,4.463211 4.5314,3.971642 13.74337,15.338893 13.74337,16.958843 0,0.669219 0.38319,1.366762 0.85154,1.550095 1.86822,0.731313 5.93723,13.403617 8.29495,25.833334 1.13019,5.95827 0.50591,22.65302 -1.02833,27.5 -0.52228,1.65 -1.48932,4.8 -2.14898,7 -6.12082,20.4134 -24.4186,38.22565 -47.21984,45.96687 -7.37713,2.5046 -21.14316,3.60457 -30.97757,2.47524 z"
       id="path1" /><g
       id="g2"
       transform="translate(-1.8098757)"><rect
         style="fill:#000000"
         id="rect1"
         width="154.97752"
         height="364.05963"
         x="339.09189"
         y="477.79501"
         ry="29.34487" /><rect
         style="fill:#000000"
         id="rect1-9"
         width="154.97752"
         height="364.05963"
         x="584.849"
         y="477.79501"
         ry="29.34487" /></g></g></svg>
