<?xml version="1.0" encoding="UTF-8" standalone="no"?>
<!-- Created with Inkscape (http://www.inkscape.org/) -->

<svg
   version="1.1"
   id="svg1"
   width="256"
   height="256"
   viewBox="0 0 256 256"
   sodipodi:docname="sc_b_idle.svg"
   inkscape:version="1.4.2 (ebf0e940d0, 2025-05-08)"
   inkscape:export-filename="logo_0_off.png"
   inkscape:export-xdpi="96"
   inkscape:export-ydpi="96"
   xmlns:inkscape="http://www.inkscape.org/namespaces/inkscape"
   xmlns:sodipodi="http://sodipodi.sourceforge.net/DTD/sodipodi-0.dtd"
   xmlns="http://www.w3.org/2000/svg"
   xmlns:svg="http://www.w3.org/2000/svg">
  <defs
     id="defs1">
    <inkscape:path-effect
       effect="powerclip"
       message=""
       id="path-effect2"
       is_visible="true"
       lpeversion="1"
       inverse="true"
       flatten="false"
       hide_clip="false" />
    <clipPath
       clipPathUnits="userSpaceOnUse"
       id="clipPath2">
      <ellipse
         style="display:none;fill:#ffffff;stroke:#000000;stroke-width:0;stroke-linecap:round;stroke-linejoin:round;stroke-dasharray:none;paint-order:stroke markers fill"
         id="ellipse2"
         cx="182.88289"
         cy="368.46844"
         rx="114.009"
         ry="105" />
    </clipPath>
  </defs>
  <sodipodi:namedview
     id="namedview1"
     pagecolor="#ffffff"
     bordercolor="#000000"
     borderopacity="0.25"
     inkscape:showpageshadow="2"
     inkscape:pageopacity="0.0"
     inkscape:pagecheckerboard="true"
     inkscape:deskcolor="#d1d1d1"
     showgrid="true"
     inkscape:zoom="3.63"
     inkscape:cx="169.28375"
     inkscape:cy="116.66667"
     inkscape:window-width="2560"
     inkscape:window-height="1366"
     inkscape:window-x="0"
     inkscape:window-y="0"
     inkscape:window-maximized="1"
     inkscape:current-layer="g1"
     showborder="false">
    <inkscape:grid
       id="grid2"
       units="px"
       originx="0"
       originy="0"
       spacingx="1"
       spacingy="1"
       empcolor="#0099e5"
       empopacity="0.30196078"
       color="#0099e5"
       opacity="0.14901961"
       empspacing="5"
       enabled="true"
       visible="false" />
  </sodipodi:namedview>
  <g
     inkscape:groupmode="layer"
     inkscape:label="Image"
     id="g1"
     style="fill:#ffffff">
    <g
       id="g2"
       transform="translate(0,-360.50001)">
      <path
         style="fill:#000000;stroke-width:0.235493"
         d="m 76.42966,603.36212 c -7.17873,-0.29967 -11.78362,-0.85923 -15.77792,-1.91729 -4.01271,-1.06296 -7.08789,-2.0749 -9.24046,-3.04076 -0.54905,-0.24636 -1.07096,-0.44792 -1.15979,-0.44792 -0.30228,0 -4.19985,-1.97046 -4.2787,-2.16314 -0.0432,-0.1055 -0.23372,-0.19181 -0.42343,-0.19181 -0.18971,0 -0.92473,-0.37091 -1.63338,-0.82423 -0.70866,-0.45333 -1.33624,-0.82424 -1.39463,-0.82424 -0.15275,0 -3.7109,-2.40947 -4.08148,-2.76384 -0.17116,-0.1637 -0.3831,-0.29809 -0.47099,-0.29868 -0.0879,0 -0.47771,-0.29873 -0.86627,-0.6625 -0.38856,-0.36377 -0.88308,-0.76067 -1.09893,-0.882 -1.64572,-0.92517 -8.26637,-7.55453 -9.83777,-9.85072 -0.18677,-0.27292 -0.41171,-0.5492 -0.49985,-0.61396 -0.18175,-0.13353 -3.75264,-5.41928 -3.75264,-5.55479 0,-0.0484 -0.34966,-0.64637 -0.77703,-1.32888 -1.06313,-1.69783 -3.6973,-7.20276 -3.6973,-7.72668 0,-0.12774 -0.10324,-0.41627 -0.22941,-0.64118 -0.37379,-0.66627 -1.41903,-3.93808 -1.41903,-4.44182 0,-0.25578 -0.0888,-0.56574 -0.19738,-0.68878 -0.10856,-0.12305 -0.38149,-1.12449 -0.60651,-2.22543 -0.22502,-1.10095 -0.49733,-2.37262 -0.60514,-2.82595 -0.3874,-1.629 -0.69586,-3.70927 -1.06503,-7.18261 -0.32611,-3.06825 -0.36252,-6.81261 -0.27709,-28.49494 0.0855,-21.70879 0.14927,-25.30017 0.48892,-27.55297 0.21481,-1.42474 0.45448,-3.09603 0.5326,-3.71396 0.0781,-0.61793 0.23433,-1.18055 0.34711,-1.25025 0.11278,-0.0697 0.20688,-0.41191 0.2091,-0.76045 0.003,-0.54678 0.40717,-2.22499 1.17211,-4.87263 0.11227,-0.38857 0.35505,-1.24092 0.53953,-1.89412 0.18447,-0.6532 0.50974,-1.58046 0.72281,-2.06059 0.21307,-0.48012 0.54636,-1.23337 0.74064,-1.6739 0.19428,-0.44052 0.35324,-0.90864 0.35324,-1.04027 0,-0.47998 3.11118,-6.33915 4.61119,-8.68408 0.44281,-0.69224 0.80511,-1.35485 0.80511,-1.47247 0,-0.36972 1.50211,-1.4082 1.758,-1.21538 0.13402,0.10099 0.8795,0.37704 1.65662,0.61344 2.32898,0.70848 3.33441,1.45309 3.55584,2.63342 0.0812,0.43294 0.24163,0.84525 0.35647,0.91622 0.11483,0.071 0.21033,0.36123 0.21222,0.64501 0.003,0.49112 0.47912,2.09456 0.9219,3.10642 1.69619,3.87617 3.5635,6.57865 5.96279,8.62969 0.8095,0.692 1.52481,1.31213 1.58957,1.37806 0.31959,0.32539 2.84946,1.88477 3.05777,1.88477 0.30193,0 0.31185,1.05112 0.015,1.59278 -0.19692,0.35936 -0.49697,1.05437 -1.19322,2.76388 -0.1055,0.25905 -0.24653,0.68294 -0.31339,0.94198 -0.0668,0.25905 -0.29701,1.05384 -0.51145,1.76622 -0.53873,1.78962 -0.76664,2.93534 -1.28827,6.47612 -0.41773,2.83558 -0.45184,4.63378 -0.46226,24.37378 -0.01,18.02989 0.0455,21.74757 0.3575,24.13828 0.20282,1.55427 0.46109,3.19685 0.57393,3.65017 0.11283,0.45333 0.37673,1.51306 0.58643,2.35496 0.43627,1.75153 0.69253,2.51253 1.34813,4.00342 0.2563,0.58285 0.62519,1.43064 0.81975,1.88396 0.91594,2.13413 2.22927,4.36524 3.6735,6.24063 0.49872,0.64761 1.18989,1.54838 1.53592,2.00171 1.51884,1.98982 5.21142,5.28048 8.03907,7.16406 2.49362,1.66107 7.07944,4.13972 7.65901,4.13972 0.0931,0 0.50317,0.14523 0.9113,0.32274 0.40814,0.1775 1.21893,0.45472 1.80178,0.61605 0.58284,0.16132 1.32463,0.38487 1.64843,0.49678 0.75052,0.25938 2.80716,0.61754 5.6518,0.98424 1.70656,0.21999 14.72038,0.28839 54.86948,0.28839 28.94777,0 53.3741,-0.0832 54.28075,-0.18486 2.5297,-0.28369 6.69934,-1.13232 7.77121,-1.58165 0.25904,-0.10859 1.24943,-0.48401 2.20086,-0.83427 2.86249,-1.05378 6.23362,-2.96477 9.45597,-5.36028 2.20396,-1.63845 6.20836,-5.81901 7.93885,-8.28812 1.47455,-2.10393 3.60022,-5.81404 3.60022,-6.28376 0,-0.0981 0.28087,-0.79089 0.62416,-1.53949 0.59423,-1.2958 1.16246,-3.02485 1.41471,-4.30477 0.0638,-0.3238 0.20637,-0.80068 0.31678,-1.05973 0.11041,-0.25904 0.39385,-1.68968 0.62986,-3.17918 0.39347,-2.48326 0.4288,-4.57616 0.42533,-25.19801 -0.004,-21.9524 -0.0159,-22.56016 -0.51127,-25.43351 -0.27912,-1.61903 -0.61447,-3.3146 -0.74522,-3.76792 -0.13076,-0.45333 -0.38867,-1.35867 -0.57315,-2.01187 -0.18448,-0.6532 -0.50974,-1.58046 -0.72281,-2.06059 -0.21307,-0.48012 -0.55353,-1.27035 -0.75657,-1.75606 -0.50557,-1.20941 -0.9023,-2.03766 -1.04341,-2.17833 -0.065,-0.0648 -0.32078,-0.48865 -0.56848,-0.94198 -0.2477,-0.45333 -1.1129,-1.8362 -1.92267,-3.07304 -1.75449,-2.67982 -6.4118,-7.44263 -8.91927,-9.12131 -0.91285,-0.61113 -1.71271,-1.16413 -1.77747,-1.22889 -0.22508,-0.22508 -1.06493,-0.70673 -1.9428,-1.1142 -0.4857,-0.22543 -0.88309,-0.49085 -0.88309,-0.58982 0,-0.099 -0.0986,-0.17994 -0.21907,-0.17994 -0.12048,0 -0.88877,-0.30973 -1.70731,-0.68829 -0.81854,-0.37856 -2.12408,-0.91597 -2.9012,-1.19424 -0.77712,-0.27826 -1.62489,-0.59624 -1.88393,-0.7066 -0.47371,-0.20183 -2.65872,-0.69554 -5.06306,-1.14403 -4.37755,-0.81654 -5.01083,-0.82749 -52.51457,-0.90803 -34.46037,-0.0584 -47.16879,-0.1513 -47.68699,-0.34847 -1.49104,-0.56733 -1.94904,-1.29529 -2.26869,-3.60592 -0.10751,-0.77714 -0.29286,-1.88985 -0.41189,-2.47271 -0.11902,-0.58285 -0.34471,-1.69556 -0.50151,-2.4727 -0.15681,-0.77713 -0.37925,-1.59698 -0.49431,-1.82189 -0.11507,-0.22491 -0.20921,-1.2014 -0.20921,-2.16998 0,-1.46432 0.10512,-1.95095 0.62387,-2.88801 1.45045,-2.6201 2.88684,-4.28849 4.9178,-5.7121 1.39296,-0.97639 3.09118,-1.89099 3.51119,-1.89099 0.20174,0 0.3668,-0.10597 0.3668,-0.23549 0,-0.12952 0.19074,-0.2355 0.42388,-0.2355 0.23314,0 0.52456,-0.0881 0.6476,-0.19568 0.12305,-0.10763 0.91253,-0.38449 1.75441,-0.61525 0.84188,-0.23076 1.79562,-0.5065 2.11942,-0.61275 1.28565,-0.42188 5.40348,-0.69577 10.46063,-0.69577 2.92451,0 5.31729,-0.0586 5.31729,-0.13016 0,-0.12464 -2.81666,-4.33645 -3.06273,-4.57975 -0.39733,-0.39287 -1.4116,-1.89036 -1.4116,-2.08412 0,-0.12738 -0.0795,-0.26691 -0.17662,-0.31009 -0.43444,-0.19308 -4.11416,-5.98572 -4.22114,-6.64492 -0.14695,-0.90558 0.53897,-1.58633 2.63157,-2.61176 2.49265,-1.22145 4.63541,-2.71755 6.45155,-4.50451 2.19428,-2.15904 2.73724,-2.25555 4.17099,-0.7414 0.52124,0.55047 1.36458,1.63669 1.87409,2.41383 0.50951,0.77713 1.00586,1.4483 1.103,1.49147 0.0971,0.0432 0.17661,0.22863 0.17661,0.41212 0,0.18349 0.0831,0.33362 0.18472,0.33362 0.1016,0 0.38772,0.34441 0.63583,0.76536 0.2481,0.42094 0.53615,0.87133 0.64009,1.00085 0.40986,0.51072 4.28926,6.14935 5.06349,7.35969 1.02165,1.59712 1.72221,2.41337 2.07131,2.41337 0.14756,0 0.49005,-0.25504 0.76108,-0.56676 0.61069,-0.70237 10.075,-13.96303 11.42623,-16.00955 0.16155,-0.24468 0.51414,-0.72156 0.78353,-1.05973 0.26939,-0.33817 1.79839,-2.46938 3.39777,-4.73602 1.59938,-2.26665 2.97652,-4.17416 3.0603,-4.23892 0.0838,-0.0648 0.35266,-0.46216 0.59749,-0.88311 0.24483,-0.42095 0.52827,-0.76536 0.62986,-0.76536 0.1016,0 0.18472,-0.15013 0.18472,-0.33362 0,-0.18349 0.0865,-0.36894 0.19232,-0.41211 0.10578,-0.0432 0.66213,-0.76449 1.23633,-1.60291 0.57421,-0.83843 1.15721,-1.64803 1.29557,-1.79911 0.13836,-0.15108 0.77418,-1.05469 1.41295,-2.00802 0.63876,-0.95333 1.24086,-1.76865 1.338,-1.81182 0.0971,-0.0432 0.17662,-0.20396 0.17662,-0.35729 0,-0.48536 2.11877,-2.72337 3.13992,-3.31663 0.53965,-0.31352 1.69649,-0.75886 2.57075,-0.98964 1.52466,-0.40246 1.65446,-0.40246 3.17913,0 2.00272,0.52866 3.2355,1.24201 4.48037,2.59255 1.22177,1.32549 1.80209,2.62348 2.11919,4.73996 0.38863,2.59396 -0.25616,4.91617 -1.92895,6.94711 -0.48007,0.58285 -1.00828,1.22652 -1.17379,1.43038 -0.16552,0.20386 -0.49976,0.70723 -0.74276,1.11861 -0.243,0.41137 -0.52494,0.74795 -0.62654,0.74795 -0.10159,0 -0.18472,0.13354 -0.18472,0.29677 0,0.16323 -0.26492,0.58249 -0.58873,0.9317 -0.3238,0.34921 -0.58872,0.7367 -0.58872,0.86108 0,0.12438 -0.0901,0.26147 -0.2003,0.30465 -0.11016,0.0432 -0.47795,0.50239 -0.81731,1.02048 -0.79379,1.21186 -3.36155,4.85916 -3.6819,5.22983 -0.1352,0.15644 -0.24581,0.3819 -0.24581,0.50103 0,0.11913 -0.16539,0.35386 -0.36753,0.52162 -0.20213,0.16777 -1.68942,2.19035 -3.30507,4.49463 -1.61566,2.30428 -3.09283,4.34488 -3.2826,4.53465 -0.18977,0.18977 -0.34503,0.45858 -0.34503,0.59736 0,0.13877 -0.0988,0.25231 -0.21962,0.25231 -0.1208,0 -0.28097,0.19327 -0.35593,0.42948 -0.075,0.23621 -0.32392,0.63361 -0.55323,0.88311 -0.2293,0.2495 -0.64718,0.82929 -0.92861,1.28842 -0.28144,0.45913 -0.72844,1.08469 -0.99334,1.39013 -0.26491,0.30544 -0.48164,0.62512 -0.48164,0.7104 0,0.0853 -0.18866,0.36049 -0.41924,0.61158 -0.23058,0.25109 -0.73334,0.88041 -1.11724,1.3985 -0.38391,0.51809 -0.75376,0.99497 -0.82189,1.05973 -0.0681,0.0648 -0.25191,0.40918 -0.4084,0.76536 l -0.28452,0.64762 h 15.94903 c 15.39908,0 24.79527,0.23942 27.25353,0.69444 0.6476,0.11987 2.60807,0.44272 4.35659,0.71745 4.65389,0.73121 4.70268,0.74097 4.84365,0.96908 0.0712,0.11521 0.36926,0.20947 0.66234,0.20947 0.29309,0 1.05512,0.1627 1.69342,0.36156 0.63829,0.19886 1.53143,0.47079 1.98475,0.6043 0.45332,0.13352 1.03616,0.33594 1.2952,0.44983 0.25904,0.11388 0.97435,0.4248 1.58957,0.69092 0.61522,0.26611 1.62195,0.70156 2.23717,0.96765 1.93388,0.83643 4.60364,2.19483 5.87597,2.98975 0.67376,0.42095 1.27911,0.76536 1.34522,0.76536 0.15883,0 3.52716,2.44142 6.73167,4.87921 0.45332,0.34486 2.37004,2.16991 4.25936,4.05566 3.29928,3.29305 7.83675,8.93493 9.04365,11.24485 0.25779,0.49342 0.52272,0.95011 0.58872,1.01487 0.40474,0.39715 2.84521,5.22224 3.63286,7.18261 0.36428,0.90666 0.84895,2.07236 1.07702,2.59045 0.22807,0.51809 0.49307,1.31289 0.58887,1.76621 0.0958,0.45333 0.25369,0.93021 0.35088,1.05973 0.0972,0.12953 0.23516,0.50043 0.30661,0.82424 0.0714,0.3238 0.30171,1.17159 0.51175,1.88396 0.21001,0.71237 0.48831,1.82509 0.61842,2.4727 0.13011,0.64761 0.33477,1.65436 0.45483,2.23721 0.12005,0.58285 0.44623,2.54335 0.72484,4.35666 0.48283,3.14263 0.5116,4.28342 0.61463,24.37378 0.11078,21.6046 -0.067,29.62294 -0.75988,34.26458 -0.19334,1.29523 -0.41727,2.86054 -0.49762,3.47847 -0.0803,0.61793 -0.23839,1.18054 -0.35116,1.25025 -0.11278,0.0697 -0.20504,0.41916 -0.20504,0.77658 0,0.35741 -0.16094,1.22544 -0.35765,1.92894 -0.19668,0.7035 -0.47369,1.70298 -0.61555,2.22107 -0.14188,0.51809 -0.34285,1.15393 -0.44661,1.41298 -0.10375,0.25904 -0.37798,1.05384 -0.6094,1.76621 -0.23142,0.71237 -0.50534,1.3959 -0.60872,1.51895 -0.10338,0.12304 -0.18797,0.362 -0.18797,0.53102 0,0.16901 -0.26493,0.85647 -0.58873,1.52769 -0.3238,0.67122 -0.58873,1.35952 -0.58873,1.52957 0,0.17004 -0.0826,0.30917 -0.18366,0.30917 -0.101,0 -0.38926,0.52986 -0.64056,1.17747 -0.25131,0.64761 -0.53958,1.17748 -0.64058,1.17748 -0.101,0 -0.18364,0.16106 -0.18364,0.35792 0,0.19686 -0.28402,0.8062 -0.63116,1.3541 -0.34714,0.5479 -0.74863,1.20812 -0.89225,1.46717 -0.37665,0.67945 -2.53895,3.98176 -2.69845,4.12117 -0.0741,0.0648 -0.8213,1.01852 -1.66043,2.11946 -2.19167,2.87546 -2.24244,2.93348 -4.83838,5.52887 -3.4803,3.47958 -6.58598,6.03435 -9.88483,8.13139 -0.90664,0.57635 -1.70142,1.1032 -1.76618,1.17079 -0.10554,0.11016 -0.8841,0.55666 -2.23717,1.28305 -0.25904,0.13906 -0.52397,0.30855 -0.58873,0.37665 -0.16388,0.17236 -4.12216,2.11338 -4.30976,2.11338 -0.084,0 -0.84036,0.31493 -1.68074,0.69985 -0.84039,0.38489 -1.82327,0.77042 -2.1842,0.85668 -0.36092,0.0863 -0.76219,0.2307 -0.89171,0.32089 -0.26917,0.18748 -3.01591,1.0408 -4.59208,1.42663 -0.58285,0.14269 -1.4836,0.36509 -2.00168,0.49424 -0.51808,0.12916 -2.37258,0.43891 -4.1211,0.68833 -1.74852,0.24941 -4.0269,0.58136 -5.06306,0.73768 -1.42233,0.21459 -14.52025,0.29214 -53.45653,0.31649 -28.36493,0.0177 -53.37411,-0.0429 -55.57596,-0.13482 z M 53.587,476.42112 c -1.55216,-0.21693 -3.17176,-0.66018 -3.52059,-0.96353 -0.12305,-0.107 -0.44285,-0.19455 -0.71068,-0.19455 -0.26783,0 -0.87684,-0.26493 -1.35336,-0.58873 -0.47651,-0.32381 -0.97798,-0.58874 -1.11438,-0.58874 -0.13639,0 -0.24798,-0.10598 -0.24798,-0.2355 0,-0.12952 -0.14224,-0.23549 -0.31609,-0.23549 -0.44888,0 -3.71274,-3.21009 -4.54937,-4.47442 -0.88411,-1.33607 -1.70493,-3.10922 -1.88853,-4.07962 -0.0778,-0.41142 -0.216,-0.85401 -0.307,-0.98353 -0.091,-0.12952 -0.30516,-1.16299 -0.47588,-2.2966 -0.25739,-1.70912 -0.25695,-2.46497 0.003,-4.42604 0.17216,-1.30072 0.40121,-2.41946 0.50901,-2.48608 0.10781,-0.0666 0.19601,-0.33727 0.19601,-0.60141 0,-0.26415 0.42842,-1.36959 0.95204,-2.45654 1.76907,-3.6723 5.70784,-7.01129 9.99831,-8.47583 1.66219,-0.56739 2.24424,-0.64432 4.94531,-0.6536 3.24833,-0.0112 4.94035,0.29714 7.10647,1.29483 2.49178,1.14768 4.81544,2.99565 6.32423,5.02957 0.38433,0.51809 0.81691,1.06767 0.96128,1.2213 0.5252,0.55887 1.70198,3.29307 2.10959,4.90158 0.54108,2.13519 0.5476,7.14731 0.0119,9.14874 -0.49917,1.86494 -0.91455,2.97927 -1.11056,2.97927 -0.0895,0 -0.22855,0.26255 -0.30909,0.58345 -0.17023,0.67828 -1.87059,2.85173 -3.38519,4.32707 -1.13612,1.10667 -3.55371,2.75688 -4.37302,2.98497 -0.27849,0.0775 -0.7183,0.22558 -0.97734,0.32902 -2.67758,1.06915 -5.39754,1.37087 -8.47769,0.94041 z M 27.91845,444.96691 c -5.32745,-1.10952 -8.23008,-2.77665 -11.22232,-6.44554 -0.97708,-1.19803 -2.24897,-3.43041 -2.58932,-4.54468 -0.73489,-2.40601 -0.9378,-3.57017 -0.97206,-5.57723 -0.0367,-2.15258 0.40619,-5.29295 0.81212,-5.75787 0.10744,-0.12304 0.19534,-0.41799 0.19534,-0.65544 0,-1.00949 1.96897,-4.23529 3.75808,-6.15693 2.85291,-3.06423 8.16687,-5.32802 12.50499,-5.32722 0.97502,1.8e-4 3.8591,0.50897 4.84802,0.85526 2.50377,0.87674 5.53062,2.75416 7.35921,4.56461 1.05567,1.04518 2.61455,3.24089 2.61455,3.68262 0,0.15283 0.0795,0.31321 0.17662,0.35638 0.23355,0.1038 1.34295,2.62644 1.74336,3.96417 0.42678,1.42588 0.42182,6.60583 -0.008,8.00685 -0.91207,2.97516 -1.587,4.418 -3.01056,6.4359 -0.74298,1.05317 -3.43657,3.43406 -4.55353,4.02492 -0.3238,0.17129 -1.0977,0.58998 -1.71977,0.93044 -0.62208,0.34045 -1.28583,0.619 -1.47502,0.619 -0.18918,0 -0.52798,0.0988 -0.75288,0.21951 -1.32957,0.71373 -5.87093,1.18808 -7.70915,0.80525 z m 39.79803,-8.48751 c -1.89979,-0.157 -4.5053,-1.1109 -5.82338,-2.13199 -3.2668,-2.53072 -4.72582,-5.60598 -4.72133,-9.95137 0.004,-3.79859 0.78627,-5.68147 3.474,-8.36099 1.7999,-1.79441 2.378,-2.17643 4.48833,-2.96602 1.09114,-0.40826 1.91047,-0.52407 3.7552,-0.53083 2.27656,-0.008 3.55433,0.25158 5.3032,1.07872 0.84315,0.39878 3.53231,2.29409 3.53265,2.4898 1.6e-4,0.0906 0.2774,0.48264 0.61608,0.87121 0.6952,0.79758 1.78545,3.04774 2.1812,4.50174 0.33338,1.22485 0.34051,5.08964 0.0117,6.33105 -0.85016,3.20955 -3.06529,5.90729 -5.98448,7.28831 -2.44673,1.15751 -4.50311,1.57292 -6.83315,1.38037 z m 22.96041,-24.9462 c -3.99126,-0.72173 -7.1424,-2.63768 -10.30385,-6.26489 -0.42034,-0.48226 -0.76424,-0.97265 -0.76424,-1.08977 0,-0.11711 -0.14892,-0.33653 -0.33093,-0.48758 -0.41157,-0.34158 -1.64771,-3.46449 -2.05808,-5.19942 -0.71866,-3.03823 -0.28009,-7.23462 1.09522,-10.47954 0.16469,-0.38857 0.37025,-0.94149 0.45681,-1.22871 0.34509,-1.14503 4.46041,-5.9539 5.09522,-5.9539 0.10035,0 0.32442,-0.13247 0.49795,-0.29437 0.29291,-0.2733 1.48678,-0.98084 2.30855,-1.36816 1.84426,-0.86924 3.6027,-1.31105 6.07719,-1.52691 1.94126,-0.16934 5.82231,0.22958 6.06575,0.62349 0.0717,0.11604 0.32765,0.21099 0.56873,0.21099 0.48883,0 3.71595,1.57474 4.20165,2.05028 0.17115,0.16757 0.3938,0.30468 0.49479,0.30468 0.28837,0 2.44707,2.13753 3.21065,3.17918 0.37979,0.51809 0.75817,0.99497 0.84086,1.05973 0.0827,0.0648 0.51166,0.80657 0.95328,1.64847 1.32673,2.52926 2.17442,6.13812 2.01903,8.59558 -0.17363,2.74599 -0.65133,4.98491 -1.432,6.71162 -0.3703,0.81903 -1.41588,2.45644 -1.6291,2.5512 -0.0971,0.0432 -0.17662,0.18831 -0.17662,0.32252 0,0.3631 -3.33253,3.72015 -3.69299,3.72015 -0.17069,0 -0.31036,0.10255 -0.31036,0.22789 0,0.12533 -0.98023,0.69702 -2.17829,1.27041 -3.55835,1.70301 -6.98721,2.14436 -11.00922,1.41706 z m -41.9712,-3.39998 c -1.98883,-0.22839 -2.82612,-0.47208 -5.24481,-1.52645 -1.443,-0.62904 -4.17278,-2.58596 -5.33493,-3.82451 -1.95575,-2.08429 -2.14042,-2.39499 -3.73988,-6.29243 -1.0561,-2.57341 -1.04825,-8.12123 0.0153,-10.83279 0.1016,-0.25904 0.35943,-0.94787 0.57295,-1.53072 1.51364,-4.13187 5.82614,-8.16728 10.13496,-9.48375 4.86636,-1.48681 6.48778,-1.50824 11.18616,-0.14786 1.43304,0.41493 4.33241,1.92212 5.02574,2.61256 0.1698,0.16909 0.69051,0.64207 1.15715,1.05106 1.0671,0.93531 3.23644,3.61224 3.23644,3.99373 0,0.1576 0.0902,0.32187 0.20053,0.36504 0.43995,0.17222 1.39817,3.15649 1.95339,6.08363 0.26615,1.40315 0.11913,5.33469 -0.24216,6.47613 -0.123,0.38856 -0.35073,1.13038 -0.50607,1.64847 -1.4414,4.80726 -5.75037,9.00196 -11.11986,10.82498 -1.73725,0.58982 -4.97904,0.84886 -7.29495,0.58291 z"
         id="path1" />
      <rect
         style="fill:#000000;stroke:#000000;stroke-width:0;stroke-linecap:round;stroke-linejoin:round;paint-order:stroke markers fill"
         id="rect1"
         width="139.95821"
         height="83.441757"
         x="58.020897"
         y="478.02258"
         rx="26.047464"
         ry="26.70532" />
    </g>
  </g>
</svg>
