<?xml version="1.0" encoding="UTF-8" standalone="no"?>
<!-- Created with Inkscape (http://www.inkscape.org/) -->

<svg
   version="1.1"
   id="svg1"
   width="256"
   height="256"
   viewBox="0 0 256 256"
   sodipodi:docname="sc_b_live.svg"
   inkscape:version="1.4.2 (ebf0e940d0, 2025-05-08)"
   inkscape:export-filename="logo_0_off.png"
   inkscape:export-xdpi="96"
   inkscape:export-ydpi="96"
   xmlns:inkscape="http://www.inkscape.org/namespaces/inkscape"
   xmlns:sodipodi="http://sodipodi.sourceforge.net/DTD/sodipodi-0.dtd"
   xmlns="http://www.w3.org/2000/svg"
   xmlns:svg="http://www.w3.org/2000/svg">
  <defs
     id="defs1">
    <inkscape:path-effect
       effect="powerclip"
       message=""
       id="path-effect2"
       is_visible="true"
       lpeversion="1"
       inverse="true"
       flatten="false"
       hide_clip="false" />
    <clipPath
       clipPathUnits="userSpaceOnUse"
       id="clipPath2">
      <ellipse
         style="display:none;fill:#ffffff;stroke:#000000;stroke-width:0;stroke-linecap:round;stroke-linejoin:round;stroke-dasharray:none;paint-order:stroke markers fill"
         id="ellipse2"
         cx="182.88289"
         cy="368.46844"
         rx="114.009"
         ry="105" />
    </clipPath>
  </defs>
  <sodipodi:namedview
     id="namedview1"
     pagecolor="#ffffff"
     bordercolor="#000000"
     borderopacity="0.25"
     inkscape:showpageshadow="2"
     inkscape:pageopacity="0.0"
     inkscape:pagecheckerboard="true"
     inkscape:deskcolor="#d1d1d1"
     showgrid="true"
     inkscape:zoom="3.03"
     inkscape:cx="121.45215"
     inkscape:cy="132.83828"
     inkscape:window-width="2560"
     inkscape:window-height="1366"
     inkscape:window-x="0"
     inkscape:window-y="0"
     inkscape:window-maximized="1"
     inkscape:current-layer="g1"
     showborder="false">
    <inkscape:grid
       id="grid2"
       units="px"
       originx="0"
       originy="0"
       spacingx="1"
       spacingy="1"
       empcolor="#0099e5"
       empopacity="0.30196078"
       color="#0099e5"
       opacity="0.14901961"
       empspacing="5"
       enabled="true"
       visible="false" />
  </sodipodi:namedview>
  <g
     inkscape:groupmode="layer"
     inkscape:label="Image"
     id="g1"
     style="fill:#ffffff">
    <g
       id="g6"
       style="fill:#00ff00">
      <path
         style="fill:#00ff00;stroke-width:0.235493"
         d="m 48.705675,47.633222 c -1.988821,-0.228391 -2.82612,-0.472077 -5.244809,-1.526451 -1.442999,-0.629044 -4.172772,-2.585963 -5.334931,-3.824507 -1.955746,-2.084289 -2.140411,-2.394993 -3.73988,-6.292432 -1.056099,-2.573406 -1.048243,-8.121233 0.01533,-10.832788 0.101608,-0.259045 0.359438,-0.947869 0.572955,-1.530721 1.513642,-4.131875 5.826138,-8.167278 10.134956,-9.483746 4.866365,-1.486816 6.487779,-1.508248 11.186161,-0.147861 1.43304,0.414927 4.332409,1.92212 5.02574,2.612554 0.169799,0.169088 0.690515,0.642068 1.157148,1.051065 1.067103,0.935303 3.236442,3.612238 3.236442,3.993729 0,0.157598 0.09024,0.321866 0.20053,0.365042 0.43995,0.17222 1.398169,3.156488 1.953392,6.08363 0.266147,1.403145 0.119135,5.334682 -0.242163,6.476124 -0.122995,0.388567 -0.350724,1.130378 -0.506066,1.648468 -1.441403,4.807261 -5.750371,9.001962 -11.119866,10.824986 -1.73725,0.589822 -4.979031,0.848857 -7.294949,0.582908 z"
         id="path6" />
      <path
         style="fill:#00ff00;stroke-width:0.235493"
         d="m 90.676878,51.033205 c -3.991254,-0.721734 -7.142403,-2.63768 -10.303853,-6.264893 -0.420333,-0.482257 -0.76424,-0.972653 -0.76424,-1.089769 0,-0.117115 -0.148918,-0.336528 -0.330927,-0.487584 -0.411568,-0.341577 -1.647709,-3.464491 -2.058083,-5.199416 -0.718651,-3.038227 -0.280084,-7.234623 1.095223,-10.479545 0.164689,-0.388568 0.370256,-0.941485 0.456816,-1.228705 0.345081,-1.145033 4.460408,-5.953905 5.095219,-5.953905 0.100346,0 0.32442,-0.132467 0.497945,-0.29437 0.292908,-0.273292 1.486779,-0.980838 2.308547,-1.368155 1.844269,-0.869242 3.602706,-1.311055 6.077195,-1.526912 1.941259,-0.16934 5.822309,0.229584 6.065751,0.623488 0.07172,0.116048 0.327648,0.210995 0.56873,0.210995 0.488828,0 3.715949,1.574736 4.201649,2.050279 0.17115,0.167572 0.3938,0.304675 0.49479,0.304675 0.28837,0 2.44707,2.137535 3.21065,3.179188 0.37979,0.51809 0.75817,0.994968 0.84086,1.059729 0.0827,0.06476 0.51166,0.806572 0.95328,1.648468 1.32673,2.529263 2.17442,6.138119 2.01903,8.595582 -0.17363,2.745989 -0.65133,4.984908 -1.432,6.711619 -0.3703,0.819032 -1.41588,2.456436 -1.6291,2.551199 -0.0971,0.04318 -0.17662,0.188307 -0.17662,0.322516 0,0.363106 -3.33253,3.720156 -3.69299,3.720156 -0.1707,0 -0.31036,0.102549 -0.31036,0.227887 0,0.125335 -0.98023,0.697019 -2.17829,1.270408 -3.558354,1.703011 -6.987214,2.144362 -11.009222,1.417065 z"
         id="path5" />
      <path
         style="fill:#00ff00;stroke-width:0.235493"
         d="m 67.716473,75.979399 c -1.899791,-0.156998 -4.505307,-1.110898 -5.82338,-2.131982 -3.2668,-2.530726 -4.725829,-5.605987 -4.721333,-9.951379 0.0039,-3.798581 0.786268,-5.681464 3.473996,-8.360985 1.799903,-1.794409 2.378001,-2.176432 4.488333,-2.966022 1.091144,-0.408255 1.910466,-0.524074 3.755204,-0.530828 2.27656,-0.0083 3.554325,0.251575 5.303191,1.07872 0.843154,0.398779 3.532316,2.294088 3.532658,2.489801 1.57e-4,0.0906 0.277394,0.482641 0.61608,0.871208 0.695194,0.797583 1.785451,3.047742 2.181196,4.501735 0.333381,1.224859 0.340511,5.089643 0.01168,6.331054 -0.850159,3.209551 -3.065292,5.90729 -5.984483,7.288312 -2.446731,1.15751 -4.503109,1.572919 -6.833143,1.380366 z"
         id="path4" />
      <path
         style="fill:#00ff00;stroke-width:0.235493"
         d="m 27.918438,84.46691 c -5.327454,-1.10952 -8.23008,-2.776644 -11.22232,-6.44554 -0.97708,-1.198031 -2.248971,-3.430412 -2.589317,-4.54468 -0.734895,-2.406004 -0.937799,-3.570164 -0.972059,-5.57723 -0.03675,-2.152574 0.40619,-5.292953 0.812116,-5.757863 0.107436,-0.123046 0.195338,-0.417995 0.195338,-0.65544 0,-1.009498 1.968968,-4.235291 3.758083,-6.156931 2.852914,-3.064238 8.166868,-5.328025 12.504993,-5.327224 0.975021,1.79e-4 3.859093,0.508971 4.84802,0.855263 2.503771,0.87674 5.530617,2.754161 7.359212,4.564602 1.055663,1.045185 2.614547,3.240891 2.614547,3.682621 0,0.152839 0.07948,0.313211 0.176618,0.356387 0.233554,0.103802 1.342951,2.626433 1.743357,3.964172 0.426785,1.425875 0.421819,6.605828 -0.0077,8.006844 -0.91207,2.975162 -1.586997,4.418004 -3.010564,6.435903 -0.742977,1.053164 -3.436565,3.43406 -4.553524,4.024918 -0.3238,0.171286 -1.097698,0.589982 -1.719772,0.930438 -0.622076,0.340453 -1.285832,0.619007 -1.475018,0.619007 -0.189185,0 -0.527981,0.09878 -0.752885,0.219507 -1.329567,0.713723 -5.870924,1.188082 -7.709145,0.805246 z"
         id="path3" />
      <path
         style="fill:#00ff00;stroke-width:0.235493"
         d="m 53.586993,115.92112 c -1.552163,-0.21692 -3.171767,-0.66018 -3.520595,-0.96353 -0.123045,-0.107 -0.442851,-0.19454 -0.710683,-0.19454 -0.267829,0 -0.87684,-0.26494 -1.353354,-0.58874 -0.476517,-0.32381 -0.977986,-0.58874 -1.114378,-0.58874 -0.136392,0 -0.247984,-0.10597 -0.247984,-0.2355 0,-0.12952 -0.142239,-0.23549 -0.316088,-0.23549 -0.44888,0 -3.712743,-3.21009 -4.549373,-4.47441 -0.884105,-1.33608 -1.704931,-3.10923 -1.888532,-4.07963 -0.07784,-0.41142 -0.215992,-0.854 -0.307,-0.98353 -0.09101,-0.12952 -0.305155,-1.16299 -0.475877,-2.2966 -0.257392,-1.709121 -0.256947,-2.464967 0.0026,-4.426041 0.172154,-1.300719 0.401207,-2.419454 0.50901,-2.48608 0.107803,-0.06663 0.196004,-0.337262 0.196004,-0.601411 0,-0.264148 0.428418,-1.369589 0.952038,-2.456532 1.769079,-3.672299 5.707843,-7.011297 9.998309,-8.475838 1.662197,-0.567388 2.244249,-0.644313 4.945318,-0.653592 3.248325,-0.01116 4.940347,0.297132 7.106469,1.294822 2.491781,1.147685 4.815437,2.995653 6.324233,5.02957 0.384329,0.51809 0.816903,1.067677 0.961275,1.221305 0.525205,0.558869 1.701979,3.293071 2.109591,4.901576 0.541083,2.135194 0.547602,7.147321 0.01189,9.148741 -0.499171,1.86494 -0.914554,2.97927 -1.110565,2.97927 -0.08946,0 -0.228552,0.26256 -0.30909,0.58346 -0.170232,0.67827 -1.870592,2.85173 -3.385188,4.32706 -1.136118,1.10667 -3.553705,2.75689 -4.373017,2.98497 -0.278497,0.0775 -0.718303,0.22559 -0.977343,0.32902 -2.677579,1.06916 -5.397542,1.37087 -8.477688,0.94041 z"
         id="path2" />
    </g>
    <path
       style="fill:#000000;stroke-width:0.235493"
       d="m 76.429652,242.86212 c -7.178732,-0.29967 -11.783623,-0.85923 -15.777919,-1.91729 -4.012716,-1.06295 -7.087896,-2.0749 -9.240468,-3.04076 -0.54905,-0.24635 -1.070953,-0.44792 -1.159785,-0.44792 -0.302279,0 -4.199847,-1.97046 -4.278706,-2.16314 -0.04317,-0.1055 -0.233713,-0.19181 -0.423423,-0.19181 -0.189709,0 -0.924732,-0.3709 -1.633386,-0.82423 -0.708655,-0.45333 -1.336235,-0.82424 -1.394622,-0.82424 -0.152757,0 -3.710901,-2.40947 -4.081489,-2.76384 -0.17115,-0.16369 -0.383093,-0.29809 -0.470983,-0.29868 -0.08789,0 -0.47771,-0.29873 -0.866271,-0.6625 -0.388561,-0.36377 -0.883081,-0.76067 -1.098934,-0.882 -1.645715,-0.92516 -8.266363,-7.55453 -9.837764,-9.85072 -0.186772,-0.27292 -0.411709,-0.5492 -0.499858,-0.61396 -0.181748,-0.13353 -3.752635,-5.41928 -3.752635,-5.55478 0,-0.0484 -0.349664,-0.64638 -0.777031,-1.32889 -1.063133,-1.69783 -3.697304,-7.20276 -3.697304,-7.72668 0,-0.12774 -0.103235,-0.41627 -0.229408,-0.64118 -0.373784,-0.66627 -1.419031,-3.93808 -1.419031,-4.44182 0,-0.25578 -0.08882,-0.56573 -0.19738,-0.68878 -0.108559,-0.12305 -0.381486,-1.12449 -0.606503,-2.22543 -0.225019,-1.10094 -0.497332,-2.37262 -0.605139,-2.82595 -0.387403,-1.62899 -0.695863,-3.70927 -1.065031,-7.18261 -0.326113,-3.06825 -0.362523,-6.8126 -0.277091,-28.49494 0.08554,-21.70878 0.149264,-25.30017 0.488915,-27.55297 0.214808,-1.42474 0.454482,-3.09603 0.532606,-3.71396 0.07813,-0.61793 0.234326,-1.18054 0.347107,-1.25025 0.112782,-0.0697 0.206875,-0.41191 0.209096,-0.76045 0.0035,-0.54678 0.407176,-2.22499 1.172115,-4.87263 0.112264,-0.38857 0.355051,-1.24092 0.539527,-1.89412 0.184475,-0.6532 0.509743,-1.58046 0.722813,-2.06058 0.213072,-0.48013 0.546361,-1.23338 0.740641,-1.6739 0.19428,-0.44053 0.353237,-0.90865 0.353237,-1.04028 0,-0.47998 3.11118,-6.33914 4.611189,-8.68407 0.442811,-0.69224 0.805112,-1.35485 0.805112,-1.47247 0,-0.36973 1.502114,-1.40821 1.757997,-1.21539 0.134023,0.10099 0.879506,0.37704 1.656627,0.61344 2.328972,0.70848 3.334409,1.4531 3.555834,2.63342 0.08122,0.43295 0.241631,0.84525 0.356468,0.91622 0.114838,0.071 0.210339,0.36123 0.212223,0.64501 0.0033,0.49113 0.479119,2.09457 0.921899,3.10642 1.696187,3.87617 3.563504,6.57865 5.962795,8.62969 0.809502,0.692 1.524807,1.31213 1.589567,1.37807 0.319592,0.32538 2.849464,1.88476 3.057765,1.88476 0.301936,0 0.311854,1.05112 0.01503,1.59279 -0.19692,0.35935 -0.496969,1.05436 -1.193218,2.76387 -0.105505,0.25905 -0.246529,0.68294 -0.313388,0.94198 -0.06686,0.25905 -0.297013,1.05385 -0.511458,1.76622 -0.538727,1.78963 -0.76664,2.93535 -1.288263,6.47612 -0.417736,2.83558 -0.451839,4.63378 -0.462267,24.37378 -0.0095,18.02989 0.04554,21.74757 0.357509,24.13828 0.202819,1.55427 0.461085,3.19685 0.573921,3.65018 0.112835,0.45333 0.376729,1.51305 0.586429,2.35495 0.436274,1.75154 0.692536,2.51254 1.348132,4.00342 0.256301,0.58285 0.625189,1.43064 0.819752,1.88397 0.915939,2.13412 2.229267,4.36524 3.6735,6.24062 0.498726,0.64762 1.189888,1.54839 1.535919,2.00172 1.518846,1.98982 5.211421,5.28047 8.039076,7.16405 2.493615,1.66107 7.079439,4.13972 7.659002,4.13972 0.09308,0 0.50317,0.14523 0.911305,0.32274 0.408134,0.1775 1.218933,0.45472 1.801775,0.61605 0.582841,0.16132 1.324638,0.38488 1.648439,0.49678 0.750513,0.25938 2.80716,0.61754 5.651792,0.98424 1.706561,0.21999 14.720381,0.28839 54.869489,0.28839 28.94776,0 53.37411,-0.0832 54.28075,-0.18486 2.5297,-0.28368 6.69934,-1.13232 7.77121,-1.58165 0.25904,-0.10859 1.24943,-0.48401 2.20086,-0.83427 2.86249,-1.05378 6.23362,-2.96477 9.45597,-5.36028 2.20396,-1.63844 6.20836,-5.81901 7.93885,-8.28812 1.47455,-2.10393 3.60022,-5.81403 3.60022,-6.28376 0,-0.0981 0.28087,-0.79089 0.62416,-1.53948 0.59423,-1.29581 1.16246,-3.02486 1.41471,-4.30477 0.0638,-0.32381 0.20637,-0.80069 0.31678,-1.05973 0.11041,-0.25905 0.39385,-1.68968 0.62986,-3.17919 0.39347,-2.48326 0.4288,-4.57616 0.42533,-25.19801 -0.004,-21.95239 -0.0159,-22.56016 -0.51127,-25.43351 -0.27912,-1.61903 -0.61447,-3.31459 -0.74522,-3.76792 -0.13076,-0.45333 -0.38867,-1.35867 -0.57315,-2.01187 -0.18448,-0.6532 -0.50974,-1.58046 -0.72281,-2.06058 -0.21307,-0.48013 -0.55353,-1.27035 -0.75657,-1.75606 -0.50557,-1.20942 -0.9023,-2.03767 -1.04341,-2.17834 -0.065,-0.0648 -0.32078,-0.48865 -0.56848,-0.94198 -0.2477,-0.45333 -1.1129,-1.8362 -1.92267,-3.07304 -1.75449,-2.67982 -6.41179,-7.44263 -8.91927,-9.12131 -0.91285,-0.61112 -1.71271,-1.16412 -1.77747,-1.22889 -0.22508,-0.22508 -1.06493,-0.70673 -1.9428,-1.11419 -0.4857,-0.22544 -0.88309,-0.49086 -0.88309,-0.58983 0,-0.099 -0.0986,-0.17994 -0.21907,-0.17994 -0.12048,0 -0.88877,-0.30973 -1.70731,-0.68829 -0.81853,-0.37856 -2.12407,-0.91597 -2.9012,-1.19424 -0.77712,-0.27826 -1.62489,-0.59624 -1.88393,-0.7066 -0.47371,-0.20183 -2.65872,-0.69554 -5.06306,-1.14402 -4.37755,-0.81655 -5.01083,-0.8275 -52.51457,-0.90804 -34.460376,-0.0584 -47.168795,-0.15129 -47.686996,-0.34847 -1.49104,-0.56733 -1.949042,-1.295293 -2.268693,-3.605922 -0.107509,-0.777135 -0.292855,-1.88985 -0.411882,-2.472702 -0.119026,-0.582851 -0.344712,-1.695566 -0.501518,-2.472701 -0.156809,-0.777135 -0.379247,-1.596987 -0.494311,-1.821894 -0.115061,-0.224908 -0.209203,-1.201396 -0.209203,-2.169977 0,-1.464318 0.105121,-1.950948 0.623868,-2.888015 1.450448,-2.620096 2.886844,-4.288489 4.917803,-5.712094 1.392957,-0.976397 3.091172,-1.890988 3.51119,-1.890988 0.201736,0 0.366792,-0.105973 0.366792,-0.235495 0,-0.129523 0.190748,-0.235496 0.423884,-0.235496 0.233137,0 0.524557,-0.08806 0.647601,-0.195687 0.123045,-0.107626 0.912529,-0.384489 1.754411,-0.615248 0.841881,-0.23076 1.795621,-0.506497 2.119422,-0.612752 1.285644,-0.421881 5.403482,-0.695772 10.460632,-0.695772 2.92451,0 5.31729,-0.05857 5.31729,-0.130153 0,-0.124645 -2.81666,-4.33645 -3.06273,-4.579755 -0.39733,-0.39287 -1.4116,-1.890361 -1.4116,-2.08412 0,-0.127372 -0.0795,-0.266908 -0.17662,-0.310084 -0.43444,-0.193085 -4.11416,-5.985726 -4.22114,-6.644927 -0.14695,-0.905574 0.53897,-1.586325 2.63157,-2.611752 2.49265,-1.221456 4.63541,-2.717551 6.45155,-4.504519 2.19428,-2.159036 2.73724,-2.255546 4.17099,-0.741393 0.52124,0.55047 1.36458,1.636693 1.87409,2.413828 0.50951,0.777134 1.00586,1.448296 1.103,1.49147 0.0971,0.04317 0.17661,0.228628 0.17661,0.412117 0,0.183491 0.0831,0.333619 0.18472,0.333619 0.1016,0 0.38772,0.344412 0.63583,0.76536 0.2481,0.420948 0.53615,0.871333 0.64009,1.000856 0.40986,0.510716 4.28926,6.149345 5.06349,7.359686 1.02165,1.59712 1.72221,2.413373 2.07131,2.413373 0.14756,0 0.49005,-0.255041 0.76108,-0.566757 0.6107,-0.702372 10.075,-13.96303 11.42623,-16.009555 0.16155,-0.244682 0.51414,-0.721561 0.78353,-1.05973 0.26939,-0.338169 1.79839,-2.469379 3.39777,-4.736022 1.59938,-2.266643 2.97652,-4.174156 3.0603,-4.238917 0.0838,-0.06476 0.35266,-0.46216 0.59749,-0.883108 0.24483,-0.420948 0.52827,-0.76536 0.62986,-0.76536 0.1016,0 0.18472,-0.150128 0.18472,-0.333619 0,-0.183489 0.0865,-0.368942 0.19232,-0.412117 0.10578,-0.04317 0.66213,-0.764482 1.23633,-1.602909 0.57421,-0.838425 1.15721,-1.648023 1.29557,-1.799105 0.13836,-0.151082 0.77418,-1.054692 1.41295,-2.008019 0.63876,-0.953331 1.24086,-1.768651 1.338,-1.811824 0.0971,-0.04318 0.17662,-0.203956 0.17662,-0.357289 0,-0.485356 2.11877,-2.723368 3.13992,-3.316626 0.53965,-0.313522 1.69649,-0.75886 2.57075,-0.989639 1.52466,-0.402464 1.65446,-0.402464 3.17913,0 2.00272,0.528657 3.2355,1.242001 4.48037,2.592548 1.22177,1.325486 1.80209,2.623476 2.11919,4.739953 0.38863,2.593962 -0.25616,4.916175 -1.92895,6.947114 -0.48007,0.582851 -1.00828,1.226523 -1.17379,1.430382 -0.16552,0.203859 -0.49976,0.707231 -0.74276,1.118604 -0.243,0.411372 -0.52494,0.747949 -0.62654,0.747949 -0.10159,0 -0.18472,0.13355 -0.18472,0.296776 0,0.163227 -0.26492,0.582494 -0.58872,0.931703 -0.32381,0.349211 -0.58873,0.736695 -0.58873,0.861077 0,0.124382 -0.0901,0.261473 -0.2003,0.304649 -0.11016,0.04317 -0.47795,0.502389 -0.81731,1.020479 -0.79379,1.211864 -3.36155,4.859163 -3.6819,5.229833 -0.1352,0.156437 -0.24581,0.3819 -0.24581,0.50103 0,0.11913 -0.16539,0.35386 -0.36752,0.521622 -0.20214,0.167763 -1.68943,2.190346 -3.30508,4.494628 -1.61566,2.304283 -3.09283,4.344874 -3.28259,4.534648 -0.18978,0.189772 -0.34504,0.458585 -0.34504,0.597358 0,0.138775 -0.0988,0.252316 -0.21962,0.252316 -0.1208,0 -0.28097,0.193264 -0.35593,0.429476 -0.075,0.236213 -0.32392,0.633612 -0.55324,0.883108 -0.22929,0.249498 -0.64717,0.829287 -0.9286,1.288419 -0.28144,0.459133 -0.72845,1.084694 -0.99334,1.390131 -0.26491,0.30544 -0.48164,0.625121 -0.48164,0.710403 0,0.08528 -0.18866,0.360491 -0.41924,0.611579 -0.23058,0.251088 -0.73334,0.880414 -1.11724,1.398504 -0.38391,0.51809 -0.75376,0.994968 -0.82189,1.059729 -0.0681,0.06476 -0.25192,0.409173 -0.4084,0.76536 l -0.28452,0.647612 h 15.94903 c 15.39908,0 24.79527,0.239424 27.25353,0.694448 0.6476,0.11987 2.60807,0.442722 4.35659,0.717446 4.65389,0.731211 4.70268,0.740973 4.84365,0.96908 0.0712,0.115212 0.36926,0.209476 0.66234,0.209476 0.29309,0 1.05512,0.162699 1.69342,0.361554 0.63829,0.198857 1.53143,0.470793 1.98475,0.604304 0.45332,0.133515 1.03616,0.335935 1.2952,0.449823 0.25904,0.113888 0.97435,0.424803 1.58957,0.69092 0.61522,0.266116 1.62195,0.701559 2.23717,0.967653 1.93388,0.836435 4.60364,2.194833 5.87597,2.989753 0.67376,0.420948 1.27911,0.76536 1.34523,0.76536 0.15881,0 3.52715,2.441418 6.73166,4.87921 0.45332,0.34486 2.37004,2.169905 4.25935,4.055658 3.29929,3.293052 7.83675,8.934928 9.04366,11.244848 0.25779,0.49342 0.52272,0.95011 0.58873,1.01487 0.40474,0.39716 2.8452,5.22225 3.63285,7.18261 0.36428,0.90666 0.84895,2.07236 1.07702,2.59045 0.22807,0.51809 0.49306,1.31289 0.58887,1.76622 0.0958,0.45332 0.25369,0.9302 0.35088,1.05973 0.0972,0.12952 0.23516,0.50042 0.30661,0.82423 0.0714,0.32381 0.30171,1.17159 0.51175,1.88396 0.21001,0.71238 0.48831,1.82509 0.61842,2.4727 0.13011,0.64762 0.33478,1.65436 0.45482,2.23721 0.12005,0.58285 0.44624,2.54335 0.72484,4.35667 0.48284,3.14262 0.51161,4.28341 0.61464,24.37377 0.11078,21.6046 -0.067,29.62294 -0.75989,34.26458 -0.19334,1.29523 -0.41727,2.86054 -0.49762,3.47847 -0.0804,0.61793 -0.23838,1.18055 -0.35116,1.25025 -0.11277,0.0697 -0.20504,0.41917 -0.20504,0.77658 0,0.35742 -0.16094,1.22544 -0.35764,1.92894 -0.19669,0.7035 -0.47369,1.70298 -0.61555,2.22107 -0.14189,0.51809 -0.34286,1.15393 -0.44661,1.41298 -0.10376,0.25904 -0.37799,1.05384 -0.60941,1.76621 -0.23142,0.71238 -0.50534,1.3959 -0.60872,1.51895 -0.10338,0.12304 -0.18797,0.362 -0.18797,0.53102 0,0.16901 -0.26493,0.85647 -0.58873,1.52769 -0.3238,0.67122 -0.58873,1.35953 -0.58873,1.52957 0,0.17004 -0.0827,0.30917 -0.18366,0.30917 -0.101,0 -0.38926,0.52986 -0.64056,1.17747 -0.25131,0.64762 -0.53958,1.17748 -0.64058,1.17748 -0.101,0 -0.18364,0.16107 -0.18364,0.35792 0,0.19686 -0.28402,0.80621 -0.63116,1.3541 -0.34714,0.5479 -0.74863,1.20812 -0.89225,1.46717 -0.37665,0.67945 -2.53895,3.98176 -2.69845,4.12117 -0.0741,0.0648 -0.8213,1.01852 -1.66043,2.11946 -2.19166,2.87546 -2.24243,2.93348 -4.83838,5.52887 -3.4803,3.47958 -6.58598,6.03435 -9.88482,8.13139 -0.90665,0.57635 -1.70143,1.1032 -1.76618,1.17079 -0.10553,0.11017 -0.8841,0.55667 -2.23717,1.28305 -0.25904,0.13906 -0.52397,0.30855 -0.58873,0.37665 -0.16388,0.17236 -4.12216,2.11338 -4.30976,2.11338 -0.084,0 -0.84036,0.31493 -1.68074,0.69985 -0.84038,0.38489 -1.82327,0.77042 -2.18419,0.85669 -0.36093,0.0863 -0.7622,0.23069 -0.89172,0.32088 -0.26916,0.18748 -3.01591,1.0408 -4.59208,1.42663 -0.58284,0.14269 -1.4836,0.36509 -2.00168,0.49424 -0.51808,0.12917 -2.37258,0.43891 -4.1211,0.68833 -1.74852,0.24941 -4.0269,0.58136 -5.06306,0.73769 -1.42233,0.21458 -14.52025,0.29213 -53.45653,0.31648 -28.36493,0.0177 -53.374119,-0.0429 -55.575963,-0.13482 z"
       id="path1" />
    <rect
       style="fill:#00ff00;stroke:#000000;stroke-width:0;stroke-linecap:round;stroke-linejoin:round;paint-order:stroke markers fill"
       id="rect1"
       width="139.95822"
       height="83.441757"
       x="58.71357"
       y="117.52258"
       rx="26.047464"
       ry="26.70532" />
  </g>
</svg>
