<?xml version="1.0" encoding="UTF-8" standalone="no"?>
<!-- Created with Inkscape (http://www.inkscape.org/) -->

<svg
   version="1.1"
   id="svg1"
   width="256"
   height="256"
   viewBox="0 0 256 256"
   sodipodi:docname="sc_w_off.svg"
   inkscape:version="1.4.2 (ebf0e940d0, 2025-05-08)"
   inkscape:export-filename="logo_0_off.png"
   inkscape:export-xdpi="96"
   inkscape:export-ydpi="96"
   xmlns:inkscape="http://www.inkscape.org/namespaces/inkscape"
   xmlns:sodipodi="http://sodipodi.sourceforge.net/DTD/sodipodi-0.dtd"
   xmlns="http://www.w3.org/2000/svg"
   xmlns:svg="http://www.w3.org/2000/svg">
  <defs
     id="defs1">
    <inkscape:path-effect
       effect="powerclip"
       message=""
       id="path-effect2"
       is_visible="true"
       lpeversion="1"
       inverse="true"
       flatten="false"
       hide_clip="false" />
    <clipPath
       clipPathUnits="userSpaceOnUse"
       id="clipPath2">
      <ellipse
         style="display:none;fill:#ffffff;stroke:#000000;stroke-width:0;stroke-linecap:round;stroke-linejoin:round;stroke-dasharray:none;paint-order:stroke markers fill"
         id="ellipse2"
         cx="182.88289"
         cy="368.46844"
         rx="114.009"
         ry="105" />
    </clipPath>
  </defs>
  <sodipodi:namedview
     id="namedview1"
     pagecolor="#ffffff"
     bordercolor="#000000"
     borderopacity="0.25"
     inkscape:showpageshadow="2"
     inkscape:pageopacity="0.0"
     inkscape:pagecheckerboard="true"
     inkscape:deskcolor="#d1d1d1"
     showgrid="true"
     inkscape:zoom="0.97"
     inkscape:cx="506.18557"
     inkscape:cy="546.90722"
     inkscape:window-width="2560"
     inkscape:window-height="1366"
     inkscape:window-x="0"
     inkscape:window-y="0"
     inkscape:window-maximized="1"
     inkscape:current-layer="g1"
     showborder="false">
    <inkscape:grid
       id="grid2"
       units="px"
       originx="0"
       originy="0"
       spacingx="1"
       spacingy="1"
       empcolor="#0099e5"
       empopacity="0.30196078"
       color="#0099e5"
       opacity="0.14901961"
       empspacing="5"
       enabled="true"
       visible="false" />
  </sodipodi:namedview>
  <g
     inkscape:groupmode="layer"
     inkscape:label="Image"
     id="g1"
     style="fill:#ffffff">
    <g
       id="g7"
       transform="matrix(0.23549133,0,0,0.23549541,12.962485,12.960493)">
      <g
         id="g6"
         style="fill:#808080">
        <path
           style="fill:#808080"
           d="m 151.78134,147.23314 c -8.44541,-0.96983 -12.00095,-2.00461 -22.27177,-6.48187 -6.12761,-2.67115 -17.71943,-10.98095 -22.65447,-16.24026 -8.304959,-8.85066 -9.089129,-10.17002 -15.881179,-26.719977 -4.48466,-10.92763 -4.4513,-34.48574 0.0651,-46 0.43147,-1.1 1.52633,-4.025 2.43302,-6.5 6.42759,-17.54546 24.740349,-34.681262 43.037489,-40.2714711 20.66473,-6.313568 27.54997,-6.404576 47.50137,-0.627871 6.08532,1.761934 18.39732,8.1620261 21.34151,11.0938621 0.72104,0.71801 2.93223,2.72646 4.91376,4.46321 4.53139,3.97164 13.74336,15.33889 13.74336,16.95884 0,0.66922 0.38319,1.36676 0.85154,1.5501 1.86822,0.73131 5.93724,13.40361 8.29496,25.83333 1.13018,5.95827 0.5059,22.65302 -1.02833,27.5 -0.52229,1.65 -1.48933,4.8 -2.14898,7 -6.12083,20.413397 -24.41861,38.225637 -47.21985,45.966867 -7.37713,2.5046 -21.14316,3.60456 -30.97757,2.47524 z"
           id="path6" />
        <path
           style="fill:#808080"
           d="m 330.00957,161.67072 c -16.94862,-3.06475 -30.32979,-11.20056 -43.7547,-26.60304 -1.78492,-2.04784 -3.2453,-4.13024 -3.2453,-4.62756 0,-0.49731 -0.63237,-1.42902 -1.40526,-2.07046 -1.7477,-1.45046 -6.9969,-14.7115 -8.73953,-22.07863 -3.05171,-12.901427 -1.18936,-30.720867 4.6508,-44.499997 0.69934,-1.65 1.57227,-3.99789 1.93984,-5.21753 1.46537,-4.86223 18.94086,-25.28247 21.63655,-25.28247 0.42611,0 1.37763,-0.5625 2.11449,-1.25 1.24382,-1.1605 6.31352,-4.165 9.80311,-5.80969 7.83158,-3.69112 15.29868,-5.56722 25.80645,-6.48383 8.24344,-0.71908 24.72409,0.9749 25.75785,2.64756 0.30455,0.49278 1.39134,0.89596 2.41508,0.89596 2.07578,0 15.77954,6.68691 17.84205,8.70624 0.72678,0.71157 1.67227,1.29376 2.10108,1.29376 1.22458,0 10.39134,9.07676 13.63386,13.5 1.61274,2.2 3.21953,4.225 3.57065,4.5 0.35112,0.275 2.17274,3.425 4.04805,7 5.63387,10.74018 9.23354,26.06471 8.57369,36.5 -0.73731,11.660477 -2.76583,21.167747 -6.08091,28.499997 -1.57244,3.47791 -6.01244,10.43093 -6.91785,10.83333 -0.4125,0.18334 -0.75,0.79962 -0.75,1.36952 0,1.54188 -14.15142,15.79715 -15.68207,15.79715 -0.72486,0 -1.31793,0.43546 -1.31793,0.96769 0,0.53222 -4.1625,2.9598 -9.25,5.39462 -15.11033,7.23161 -29.67078,9.10575 -46.75,6.01738 z"
           id="path5" />
        <path
           style="fill:#808080"
           d="m 232.50957,267.60142 c -8.06735,-0.66667 -19.13152,-4.71728 -24.72864,-9.05318 -13.87227,-10.74639 -20.06795,-23.80508 -20.04886,-42.25721 0.0167,-16.13017 3.33884,-24.12558 14.75212,-35.50381 7.64318,-7.61972 10.09804,-9.24193 19.05944,-12.59482 4.63348,-1.7336 8.11268,-2.22541 15.94625,-2.25409 9.66728,-0.0354 15.09323,1.06828 22.51969,4.58064 3.5804,1.69336 14.99977,9.74154 15.00122,10.57261 6.7e-4,0.38471 1.17794,2.04947 2.61615,3.69947 2.9521,3.38683 7.58181,12.94183 9.26232,19.11602 1.41568,5.2012 1.44596,21.61249 0.0496,26.88398 -3.61015,13.62893 -13.01658,25.08452 -25.41275,30.94885 -10.3899,4.91521 -19.12219,6.67919 -29.01654,5.86154 z"
           id="path4" />
        <path
           style="fill:#808080"
           d="m 63.509571,303.64251 c -22.62272,-4.71143 -34.94855,-11.79065 -47.65492,-27.37013 -4.14911,-5.08728 -9.55012,-14.56679 -10.99538,-19.29838 -3.12069,-10.21678 -3.98231,-15.16023 -4.12779,-23.68297 -0.15604,-9.14062 1.72486,-22.47582 3.4486,-24.45 0.45622,-0.5225 0.82949,-1.77496 0.82949,-2.78324 0,-4.2867 8.36111,-17.9846 15.95848,-26.14459 12.11473,-13.01188 34.68012,-22.62475 53.10171,-22.62135 4.14037,7.6e-4 16.38741,2.16128 20.58683,3.63176 10.632119,3.72296 23.485439,11.69518 31.250459,19.38298 4.48281,4.43824 11.10252,13.76201 11.10252,15.63776 0,0.64901 0.3375,1.33001 0.75,1.51335 0.99177,0.44078 5.70276,11.1528 7.40306,16.83333 1.81232,6.05479 1.79123,28.05077 -0.0326,34 -3.87305,12.63363 -6.73909,18.76047 -12.78418,27.32921 -3.15501,4.47212 -14.59317,14.58228 -19.33627,17.09128 -1.375,0.72734 -4.66131,2.50528 -7.30291,3.95098 -2.64161,1.44569 -5.46021,2.62853 -6.263579,2.62853 -0.80336,0 -2.24204,0.41945 -3.19708,0.93211 -5.64593,3.03073 -24.93053,5.04503 -32.73643,3.41937 z"
           id="path3" />
        <path
           style="fill:#808080"
           d="m 172.50957,437.20863 c -6.59117,-0.92113 -13.46872,-2.80336 -14.95,-4.09148 -0.5225,-0.45437 -1.88054,-0.82612 -3.01787,-0.82612 -1.13732,0 -3.72345,-1.125 -5.74694,-2.5 -2.0235,-1.375 -4.15296,-2.5 -4.73214,-2.5 -0.57918,0 -1.05305,-0.45 -1.05305,-1 0,-0.55 -0.60401,-1 -1.34225,-1 -1.90614,0 -15.76594,-13.63121 -19.31864,-19 -3.7543,-5.67345 -7.23989,-13.20292 -8.01954,-17.3236 -0.33055,-1.74702 -0.9172,-3.6264 -1.30366,-4.1764 -0.38647,-0.55 -1.29582,-4.93849 -2.02078,-9.75221 -1.093,-7.25757 -1.09111,-10.46717 0.0111,-18.79461 0.73104,-5.52333 1.7037,-10.27389 2.16148,-10.55681 0.45778,-0.28292 0.83232,-1.43214 0.83232,-2.55381 0,-1.12167 1.81925,-5.81578 4.04277,-10.43134 7.51229,-15.59393 24.23802,-29.77254 42.45723,-35.99152 7.05842,-2.40934 9.53007,-2.73599 21,-2.77539 13.79382,-0.0474 20.97889,1.26173 30.1772,5.49829 10.5812,4.87349 20.44847,12.72064 26.85548,21.3574 1.63203,2.2 3.46893,4.53375 4.082,5.18611 2.23025,2.37316 7.22735,13.98359 8.95825,20.81389 2.29768,9.06682 2.32536,30.35013 0.0505,38.84892 -2.1197,7.91921 -3.8836,12.65108 -4.71595,12.65108 -0.37989,0 -0.97053,1.1149 -1.31253,2.47756 -0.72288,2.88019 -7.94336,12.10949 -14.375,18.37432 -4.82446,4.69932 -15.0906,11.70673 -18.56976,12.67525 -1.18262,0.32921 -3.05023,0.95793 -4.15023,1.39716 -11.37018,4.54002 -22.92034,5.82122 -36,3.99331 z"
           id="path2" />
      </g>
      <path
         style="fill:#ffffff"
         d="m 269.50957,976.24673 c -30.48406,-1.2725 -50.03846,-3.6486 -67,-8.1415 -17.03976,-4.5137 -30.09833,-8.8108 -39.2391,-12.9122 -2.33151,-1.0461 -4.54774,-1.902 -4.92496,-1.902 -1.28361,0 -17.8344,-8.3673 -18.16927,-9.1855 -0.18334,-0.448 -0.99245,-0.8145 -1.79804,-0.8145 -0.80559,0 -3.92682,-1.575 -6.93608,-3.5 -3.00926,-1.925 -5.67424,-3.5 -5.92218,-3.5 -0.64867,0 -15.75812,-10.2315 -17.3318,-11.7363 -0.72678,-0.6951 -1.62678,-1.2658 -2,-1.2683 -0.37321,0 -2.02857,-1.2685 -3.67857,-2.8132 -1.65,-1.5447 -3.749949,-3.2301 -4.666559,-3.7453 -6.98843,-3.9286 -35.10262,-32.07931 -41.77548,-41.82978 -0.79312,-1.15892 -1.7483,-2.33212 -2.12262,-2.60712 -0.77178,-0.567 -15.93534,-23.01223 -15.93534,-23.58764 0,-0.20544 -1.48483,-2.74476 -3.29962,-5.64294 -4.51453,-7.2096 -15.70038,-30.58556 -15.70038,-32.81032 0,-0.54243 -0.43838,-1.76763 -0.97417,-2.72267 -1.58725,-2.82925 -6.02583,-16.72255 -6.02583,-18.86161 0,-1.08615 -0.37717,-2.40232 -0.83816,-2.92482 -0.46099,-0.5225 -1.61996,-4.775 -2.57548,-9.45 -0.95553,-4.675 -2.11189,-10.075 -2.56969,-12 -1.64508,-6.91732 -2.95494,-15.75093 -4.52259,-30.5 -1.38482,-13.02894 -1.53943,-28.92883 -1.17665,-121 0.36322,-92.18346 0.63384,-107.43379 2.07615,-117 0.91217,-6.05 1.92993,-13.14688 2.26168,-15.77085 0.33176,-2.62397 0.99505,-5.01303 1.47397,-5.30902 0.47892,-0.29599 0.87848,-1.74911 0.88791,-3.22915 0.0148,-2.32183 1.72905,-9.44813 4.97732,-20.69098 0.47672,-1.65 1.5077,-5.26941 2.29107,-8.04313 0.78336,-2.77372 2.16459,-6.71122 3.06938,-8.75 0.9048,-2.03878 2.32009,-5.23738 3.14509,-7.108 0.825,-1.87062 1.5,-3.85844 1.5,-4.41737 0,-2.03817 13.21144,-26.91835 19.58114,-36.87579 1.88037,-2.9395 3.41886,-5.75319 3.41886,-6.25265 0,-1.56997 6.37864,-5.97974 7.46523,-5.16096 0.56912,0.42885 3.73477,1.60106 7.03477,2.6049 9.88984,3.00844 14.15937,6.17036 15.09964,11.18245 0.3449,1.83845 1.02607,3.58923 1.51372,3.89061 0.48765,0.30139 0.89319,1.53392 0.90119,2.73896 0.0139,2.08549 2.03455,8.89428 3.91479,13.19098 7.20276,16.45964 15.13221,27.93538 25.320659,36.64483 3.4375,2.9385 6.475,5.5718 6.75,5.85178 1.35713,1.3817 12.10008,8.00339 12.98462,8.00339 1.28215,0 1.32427,4.46347 0.0638,6.76357 -0.83621,1.52594 -2.11035,4.47721 -5.06693,11.73643 -0.44802,1.1 -1.04687,2.9 -1.33078,4 -0.2839,1.1 -1.26125,4.475 -2.17188,7.5 -2.28767,7.59941 -3.25549,12.46456 -5.47053,27.5 -1.77389,12.04091 -1.91871,19.67671 -1.96299,103.5 -0.0404,76.56154 0.19338,92.34819 1.51814,102.5 0.86126,6.6 1.95797,13.575 2.43712,15.5 0.47915,1.925 1.59976,6.425 2.49024,10 1.85261,7.43766 2.94081,10.66915 5.72476,17 1.08837,2.475 2.65483,6.075 3.48103,8 3.88948,9.06229 9.46645,18.53641 15.5993,26.5 2.11781,2.75 5.05279,6.575 6.52219,8.5 6.44969,8.44951 22.12999,22.42283 34.13746,30.4212 10.58899,7.05351 30.06242,17.5788 32.5235,17.5788 0.39527,0 2.13668,0.6167 3.8698,1.37045 1.73312,0.75374 5.17613,1.93093 7.65113,2.61597 2.475,0.68504 5.625,1.63433 7,2.10953 3.18701,1.10143 11.92044,2.6223 24,4.17943 7.24681,0.93417 62.50923,1.22462 233,1.22462 122.925,0 226.65,-0.35324 230.5,-0.78498 10.74225,-1.20464 28.44836,-4.80824 33,-6.71627 1.1,-0.46111 5.30562,-2.05529 9.34582,-3.54261 12.15538,-4.47476 26.47069,-12.58951 40.1542,-22.76174 9.35902,-6.95743 26.36345,-24.70965 33.71188,-35.1944 6.26159,-8.93404 15.28812,-24.68852 15.28812,-26.68316 0,-0.41666 1.1927,-3.35841 2.65045,-6.5372 2.52335,-5.50247 4.93631,-12.84465 6.00748,-18.27964 0.271,-1.375 0.87633,-3.4 1.3452,-4.5 0.46886,-1.1 1.67246,-7.175 2.67467,-13.5 1.67085,-10.54483 1.82086,-19.43203 1.80612,-107 -0.0157,-93.21792 -0.0676,-95.7987 -2.17109,-108 -1.18526,-6.875 -2.6093,-14.075 -3.16453,-16 -0.55524,-1.925 -1.65046,-5.76941 -2.43383,-8.54313 -0.78337,-2.77372 -2.16459,-6.71122 -3.06939,-8.75 -0.90479,-2.03878 -2.35051,-5.39437 -3.21271,-7.45687 -2.14687,-5.13563 -3.83155,-8.65268 -4.43078,-9.25 -0.27587,-0.275 -1.36219,-2.075 -2.41403,-4 -1.05184,-1.925 -4.72585,-7.79717 -8.16448,-13.04926 -7.45034,-11.37951 -27.22732,-31.60413 -37.87515,-38.73243 -3.87636,-2.59507 -7.27293,-4.94331 -7.54793,-5.21831 -0.95578,-0.95578 -4.52216,-3.00106 -8.25,-4.73129 -2.0625,-0.95728 -3.75,-2.08436 -3.75,-2.50461 0,-0.42026 -0.4186,-0.7641 -0.93023,-0.7641 -0.51163,0 -3.77413,-1.31523 -7.25,-2.92274 -3.47587,-1.60751 -9.01977,-3.88953 -12.31977,-5.07116 -3.3,-1.18162 -6.9,-2.53185 -8,-3.0005 -2.01159,-0.85704 -11.29009,-2.95353 -21.5,-4.85795 -18.589,-3.46734 -21.27817,-3.51384 -223,-3.85585 -146.33394,-0.24811 -200.29949,-0.64245 -202.5,-1.47972 -6.33161,-2.40911 -8.27649,-5.5003 -9.63387,-15.31208 -0.45653,-3.3 -1.24359,-8.025 -1.74903,-10.5 -0.50544,-2.475 -1.4638,-7.2 -2.12967,-10.5 -0.66588,-3.3 -1.61045,-6.78139 -2.09906,-7.73643 -0.4886,-0.95504 -0.88837,-5.10157 -0.88837,-9.21452 0,-6.21803 0.44639,-8.28444 2.64922,-12.26357 6.15924,-11.12589 12.25881,-18.2105 20.88316,-24.25565 5.91511,-4.14614 13.12648,-8.02983 14.91006,-8.02983 0.85666,0 1.55756,-0.45 1.55756,-1 0,-0.55 0.81,-1 1.8,-1 0.99,0 2.2275,-0.37393 2.75,-0.83096 0.5225,-0.45702 3.875,-1.63268 7.45,-2.61257 3.575,-0.97989 7.625,-2.15077 9,-2.60197 5.45941,-1.79146 22.94554,-2.9545 44.42044,-2.9545 12.41876,0 22.57956,-0.2487 22.57956,-0.55268 0,-0.52929 -11.96077,-18.41416 -13.00569,-19.44732 -1.68725,-1.66827 -5.99431,-8.02717 -5.99431,-8.84994 0,-0.54087 -0.3375,-1.13339 -0.75,-1.31673 -1.84481,-0.81991 -17.47055,-25.41759 -17.9248,-28.2168 -0.62403,-3.8454 2.28868,-6.73612 11.1748,-11.09046 10.58487,-5.18675 19.684,-11.53972 27.39612,-19.12784 9.31788,-9.16806 11.62352,-9.57788 17.71186,-3.14823 2.21341,2.3375 5.79461,6.95 7.95821,10.25 2.16359,3.3 4.27131,6.15 4.68381,6.33333 0.4125,0.18334 0.75,0.97084 0.75,1.75 0,0.77917 0.35298,1.41667 0.78439,1.41667 0.43142,0 1.64641,1.4625 2.69999,3.25 1.05357,1.7875 2.27673,3.7 2.71812,4.25 1.74045,2.16869 18.21408,26.11238 21.50181,31.25193 4.33837,6.78196 7.31325,10.24807 8.79569,10.24807 0.62663,0 2.08098,-1.083 3.23189,-2.40666 2.59328,-2.98253 42.78288,-59.29215 48.52079,-67.98245 0.68603,-1.03901 2.18328,-3.06401 3.32723,-4.5 1.14396,-1.43599 7.63675,-10.48589 14.42843,-20.11089 6.79168,-9.625 12.63961,-17.725 12.9954,-18 0.35579,-0.275 1.49752,-1.9625 2.53718,-3.75 1.03966,-1.7875 2.24327,-3.25 2.67469,-3.25 0.43141,0 0.78439,-0.6375 0.78439,-1.41667 0,-0.77916 0.36751,-1.56666 0.81669,-1.75 0.44917,-0.18333 2.81167,-3.24627 5.25,-6.80654 2.43832,-3.56026 4.91402,-6.99811 5.50154,-7.63966 0.58753,-0.64155 3.28753,-4.478607 6,-8.526787 2.71248,-4.04819 5.26927,-7.51034 5.68177,-7.69367 0.4125,-0.18334 0.75,-0.86607 0.75,-1.51718 0,-2.061 8.99723,-11.56442 13.33346,-14.08361 2.2916,-1.33133 7.20404,-3.2224 10.91654,-4.20237 6.47441,-1.70901 7.02559,-1.70901 13.5,0 8.50443,2.24487 13.73937,5.27399 19.02563,11.00891 5.18818,5.6285 7.65246,11.14024 8.999,20.12758 1.65032,11.014917 -1.08774,20.875887 -8.19116,29.499997 -2.03859,2.475 -4.28159,5.20827 -4.98445,6.07393 -0.70286,0.86566 -2.1222,3.00316 -3.15408,4.75 -1.03189,1.74684 -2.22913,3.17607 -2.66055,3.17607 -0.43141,0 -0.78439,0.5671 -0.78439,1.26022 0,0.69312 -1.125,2.47348 -2.5,3.95635 -1.375,1.48288 -2.5,3.12828 -2.5,3.65645 0,0.52817 -0.38274,1.11031 -0.85054,1.29365 -0.4678,0.18333 -2.02959,2.13333 -3.47065,4.33333 -3.37079,5.14602 -14.27466,20.63379 -15.63498,22.20779 -0.57411,0.66429 -1.04383,1.62169 -1.04383,2.12756 0,0.50587 -0.7023,1.50262 -1.56067,2.215 -0.85836,0.71238 -7.17404,9.30101 -14.03482,19.08584 -6.86079,9.78483 -13.13349,18.44993 -13.93933,19.25578 -0.80585,0.80584 -1.46518,1.94732 -1.46518,2.5366 0,0.58929 -0.41968,1.07143 -0.93261,1.07143 -0.51294,0 -1.19309,0.82067 -1.51144,1.82371 -0.31835,1.00305 -1.3755,2.69055 -2.34923,3.75 -0.97372,1.05946 -2.74821,3.52146 -3.94331,5.4711 -1.1951,1.94965 -3.09327,4.60601 -4.21816,5.90301 -1.12489,1.29701 -2.04525,2.65449 -2.04525,3.01663 0,0.36213 -0.80112,1.53078 -1.78026,2.59699 -0.97914,1.06621 -3.11408,3.73856 -4.74431,5.93856 -1.63023,2.2 -3.20077,4.225 -3.4901,4.5 -0.28932,0.275 -1.06973,1.7375 -1.73425,3.25 l -1.2082,2.75 h 67.7266 c 65.39129,0 105.29167,1.01668 115.73052,2.94888 2.75,0.50901 11.075,1.87996 18.5,3.04654 19.76246,3.10499 19.96964,3.14644 20.56829,4.11507 0.30236,0.48923 1.56802,0.88951 2.81259,0.88951 1.24456,0 4.4805,0.69088 7.19098,1.53529 2.71048,0.84442 6.50314,1.99916 8.42814,2.5661 1.925,0.56695 4.4,1.4265 5.5,1.91011 1.1,0.48361 4.1375,1.80387 6.75,2.9339 2.6125,1.13003 6.8875,2.97908 9.5,4.10901 8.21212,3.55181 19.54909,9.32007 24.95196,12.69559 2.86108,1.7875 5.43167,3.25 5.71243,3.25 0.67444,0 14.97787,10.36716 28.58561,20.71892 1.925,1.4644 10.06424,9.21421 18.08714,17.22181 14.0102,13.98351 33.2783,37.94099 38.4033,47.74976 1.0947,2.09523 2.2197,4.03451 2.5,4.30951 1.7187,1.68647 12.082,22.17557 15.4267,30.5 1.5469,3.85 3.605,8.8 4.5735,11 0.9685,2.2 2.0938,5.575 2.5006,7.5 0.4068,1.925 1.0773,3.95 1.49,4.5 0.4127,0.55 0.9986,2.125 1.302,3.5 0.3033,1.375 1.2812,4.975 2.1731,8 0.8918,3.025 2.0736,7.75 2.6261,10.5 0.5525,2.75 1.4216,7.025 1.9314,9.5 0.5098,2.475 1.8949,10.8 3.078,18.5 2.0503,13.34474 2.1725,18.18897 2.61,103.5 0.4704,91.74107 -0.2847,125.7899 -3.2268,145.5 -0.821,5.5 -1.7719,12.14688 -2.1131,14.77085 -0.3412,2.62397 -1.0123,5.01303 -1.4912,5.30902 -0.4789,0.29599 -0.8707,1.77993 -0.8707,3.29765 0,1.51771 -0.6834,5.20365 -1.5187,8.19098 -0.8352,2.98732 -2.0115,7.2315 -2.6139,9.4315 -0.6025,2.2 -1.4559,4.9 -1.8965,6 -0.4406,1.1 -1.6051,4.475 -2.5878,7.5 -0.9827,3.025 -2.1459,5.9275 -2.5849,6.45 -0.439,0.5225 -0.7982,1.53721 -0.7982,2.2549 0,0.7177 -1.125,3.63692 -2.5,6.48716 -1.375,2.85023 -2.5,5.77303 -2.5,6.49509 0,0.72207 -0.351,1.31285 -0.7799,1.31285 -0.4289,0 -1.653,2.25 -2.7201,5 -1.0672,2.75 -2.2913,5 -2.7202,5 -0.4289,0 -0.7798,0.68394 -0.7798,1.51987 0,0.83593 -1.2061,3.42343 -2.6802,5.75 -1.4741,2.32657 -3.179,5.13013 -3.7889,6.23013 -1.5994,2.8852 -10.7815,16.90803 -11.4588,17.5 -0.3147,0.275 -3.4876,4.325 -7.0509,9 -9.3068,12.21029 -9.5224,12.45666 -20.5459,23.47763 -14.7789,14.77558 -27.96697,25.62407 -41.97534,34.52887 -3.85,2.4474 -7.225,4.6846 -7.5,4.9716 -0.44814,0.4678 -3.75426,2.3638 -9.5,5.4483 -1.1,0.5905 -2.225,1.3102 -2.5,1.5994 -0.69593,0.7319 -17.50453,8.9742 -18.30116,8.9742 -0.35682,0 -3.56854,1.3373 -7.13717,2.9718 -3.56863,1.6344 -7.7424,3.2715 -9.27504,3.6378 -1.53265,0.3664 -3.23663,0.9796 -3.78663,1.3626 -1.14298,0.7961 -12.80688,4.4196 -19.5,6.058 -2.475,0.6059 -6.3,1.5503 -8.5,2.0987 -2.2,0.5485 -10.075,1.8638 -17.5,2.9229 -7.425,1.0591 -17.1,2.4687 -21.5,3.1325 -6.03984,0.9112 -61.65938,1.2405 -227,1.3439 -120.45,0.075 -226.65,-0.1822 -236,-0.5725 z"
         id="path1" />
      <rect
         style="fill:#808080;stroke:#000000;stroke-width:0;stroke-linecap:round;stroke-linejoin:round;paint-order:stroke markers fill"
         id="rect1"
         width="594.32428"
         height="354.32434"
         x="194.27928"
         y="444.00903"
         rx="110.60902"
         ry="113.4006" />
    </g>
  </g>
</svg>
